<svg width="22" height="25" viewBox="0 0 22 25" fill="none" xmlns="http://www.w3.org/2000/svg">
<path d="M2.22158 2.8086C2.28661 1.68486 2.56143 1.1962 3.34954 0.803792C4.19754 0.381434 5.535 0.577987 7.10879 1.35639C7.78665 1.69182 7.85567 1.69865 9.04364 1.54989C10.6227 1.35207 12.6555 1.35277 14.113 1.5517C15.2151 1.70213 15.2875 1.69462 15.967 1.35849C18.2009 0.253558 19.9646 0.325854 20.6032 1.54849C20.922 2.15877 20.9812 3.74232 20.734 5.0484C20.597 5.77248 20.6115 5.86288 20.9416 6.33804C23.2644 9.68137 21.5908 15.1007 17.6105 17.1232C17.3059 17.278 17.0493 17.3738 16.8401 17.4518C16.1978 17.6913 16.0027 17.7641 16.2389 18.8668C16.3526 19.3972 16.4895 20.7159 16.5433 21.7974C16.6406 23.7523 16.6391 23.7659 16.2881 24.1648C15.8103 24.7073 15.1216 24.7164 14.655 24.1865C14.3506 23.8409 14.3209 23.6777 14.3209 22.3443C14.3209 20.3738 14.0998 19.064 13.5773 17.9417C12.956 16.6061 13.4166 16.1081 14.8375 15.8096C16.8125 15.3946 18.355 14.2041 19.2148 12.4313C20.0323 10.746 20.1554 8.41719 18.6776 7.00083C18.2573 6.51299 18.228 6.07113 18.5281 4.73873C18.6403 4.24074 18.7343 3.59828 18.7371 3.31091C18.7414 2.85707 18.699 2.78854 18.4137 2.78854C18.2331 2.78854 17.543 3.04513 16.8805 3.35869L15.823 3.85931C15.7269 3.90481 15.6193 3.92231 15.5132 3.91041C12.8243 3.60895 10.2693 3.6043 7.56725 3.91159C7.46074 3.9237 7.3527 3.9062 7.25623 3.86047L6.19932 3.35953C5.53671 3.0454 4.84673 2.78854 4.66619 2.78854C4.24874 2.78854 4.24246 3.08956 4.62296 4.87803C4.8554 5.9703 5.01181 6.21368 4.33988 7.08705C3.33271 8.39619 3.08113 10.0218 3.62123 11.7298C4.30194 13.8822 5.96885 15.3363 8.31233 15.8214C9.72505 16.1139 10.0943 16.4955 9.55484 18.0777C9.1302 19.3229 8.8617 19.6438 8.24458 19.6438C7.41427 19.6438 6.89414 18.9413 7.18038 18.2061C7.30645 17.8821 7.26895 17.8475 6.49111 17.5704C4.11668 16.7249 2.30058 14.8296 1.47027 12.3306C0.828492 10.3992 1.11088 7.88524 2.14043 6.36576C2.49098 5.84839 2.49641 5.80452 2.33282 4.81409C2.24026 4.25342 2.1902 3.35103 2.22158 2.8086Z" fill="#1983FF"/>
<path d="M1.94543 17.5904C1.62014 17.1353 0.960882 17.0123 0.472941 17.3158C-0.0149902 17.6192 -0.146848 18.2342 0.178443 18.6893C0.418596 19.0253 0.705895 19.3014 0.949871 19.5289C0.99485 19.5709 1.03855 19.6114 1.08123 19.6509C1.2856 19.8403 1.46605 20.0075 1.64728 20.206C2.04813 20.6448 2.44802 21.236 2.6753 22.2959C2.77653 22.7681 3.14037 23.0225 3.34197 23.1336C3.5606 23.254 3.79948 23.325 3.99605 23.3713C4.39818 23.4659 4.88633 23.515 5.34961 23.5436C5.85818 23.5751 6.40924 23.5853 6.902 23.5881C6.90236 24.1347 7.37761 24.5779 7.96381 24.5779C8.55025 24.5779 9.02564 24.1344 9.02564 23.5874V22.5969C9.02564 22.0499 8.55025 21.6065 7.96381 21.6065C7.86372 21.6065 7.75542 21.6068 7.64071 21.6072C7.01757 21.609 6.20532 21.6112 5.48997 21.5671C5.14501 21.5458 4.86144 21.5156 4.65349 21.4786C4.33327 20.306 3.81593 19.5258 3.2639 18.9213C3.01987 18.6542 2.76718 18.4205 2.56164 18.2303C2.52316 18.1947 2.48634 18.1607 2.45152 18.1282C2.21436 17.907 2.05923 17.7497 1.94543 17.5904Z" fill="#1983FF"/>
</svg>
