<svg width="22" height="24" viewBox="0 0 22 24" fill="none" xmlns="http://www.w3.org/2000/svg">
<path d="M2.22158 2.23072C2.28661 1.10698 2.56143 0.618321 3.34954 0.225911C4.19754 -0.196446 5.535 0.000105858 7.10879 0.77851C7.78665 1.11394 7.85567 1.12077 9.04364 0.972005C10.6227 0.77419 12.6555 0.774889 14.113 0.973816C15.2151 1.12425 15.2875 1.11674 15.967 0.780605C18.2009 -0.324323 19.9646 -0.252027 20.6032 0.970609C20.922 1.58088 20.9812 3.16444 20.734 4.47052C20.597 5.19459 20.6115 5.285 20.9416 5.76015C23.2644 9.10349 21.5908 14.5229 17.6105 16.5453C17.3059 16.7001 17.0493 16.7959 16.8401 16.8739C16.1978 17.1134 16.0027 17.1862 16.2389 18.2889C16.3526 18.8193 16.4895 20.138 16.5433 21.2195C16.6406 23.1744 16.6391 23.188 16.2881 23.5869C15.8103 24.1294 15.1216 24.1386 14.655 23.6086C14.3506 23.263 14.3209 23.0998 14.3209 21.7664C14.3209 19.7959 14.0998 18.4861 13.5773 17.3638C12.956 16.0282 13.4166 15.5302 14.8375 15.2317C16.8125 14.8167 18.355 13.6262 19.2148 11.8534C20.0323 10.1682 20.1554 7.83931 18.6776 6.42295C18.2573 5.93511 18.228 5.49325 18.5281 4.16085C18.6403 3.66286 18.7343 3.0204 18.7371 2.73303C18.7414 2.27919 18.699 2.21065 18.4137 2.21065C18.2331 2.21065 17.543 2.46725 16.8805 2.78081L15.823 3.28143C15.7269 3.32693 15.6193 3.34442 15.5132 3.33253C12.8243 3.03107 10.2693 3.02641 7.56725 3.33371C7.46074 3.34582 7.3527 3.32832 7.25623 3.28259L6.19932 2.78165C5.53671 2.46752 4.84673 2.21065 4.66619 2.21065C4.24874 2.21065 4.24246 2.51168 4.62296 4.30015C4.8554 5.39242 5.01181 5.6358 4.33988 6.50917C3.33271 7.81831 3.08113 9.44394 3.62123 11.1519C4.30194 13.3043 5.96885 14.7584 8.31233 15.2435C9.72505 15.536 10.0943 15.9176 9.55484 17.4998C9.1302 18.745 8.8617 19.0659 8.24458 19.0659C7.41427 19.0659 6.89414 18.3634 7.18038 17.6282C7.30645 17.3042 7.26895 17.2697 6.49111 16.9926C4.11668 16.147 2.30058 14.2518 1.47027 11.7527C0.828492 9.8213 1.11088 7.30736 2.14043 5.78787C2.49098 5.27051 2.49641 5.22663 2.33282 4.23621C2.24026 3.67554 2.1902 2.77315 2.22158 2.23072Z" fill="#1983FF"/>
<path d="M1.94543 17.0126C1.62014 16.5574 0.960882 16.4344 0.472941 16.7379C-0.0149902 17.0413 -0.146848 17.6563 0.178443 18.1114C0.418596 18.4475 0.705895 18.7235 0.949871 18.951C0.99485 18.993 1.03855 19.0335 1.08123 19.073C1.2856 19.2624 1.46605 19.4296 1.64728 19.6281C2.04813 20.067 2.44802 20.6581 2.6753 21.7181C2.77653 22.1902 3.14037 22.4446 3.34197 22.5557C3.5606 22.6761 3.79948 22.7472 3.99605 22.7934C4.39818 22.888 4.88633 22.9371 5.34961 22.9658C5.85818 22.9973 6.40924 23.0075 6.902 23.0102C6.90236 23.5569 7.37761 24 7.96381 24C8.55025 24 9.02564 23.5566 9.02564 23.0095V22.0191C9.02564 21.472 8.55025 21.0286 7.96381 21.0286C7.86372 21.0286 7.75542 21.0289 7.64071 21.0293C7.01757 21.0311 6.20532 21.0334 5.48997 20.9892C5.14501 20.9679 4.86144 20.9377 4.65349 20.9007C4.33327 19.7281 3.81593 18.9479 3.2639 18.3435C3.01987 18.0763 2.76718 17.8426 2.56164 17.6524C2.52316 17.6168 2.48634 17.5828 2.45152 17.5503C2.21436 17.3291 2.05923 17.1718 1.94543 17.0126Z" fill="#1983FF"/>
</svg>
