<svg width="120" height="120" viewBox="0 0 120 120" fill="none" xmlns="http://www.w3.org/2000/svg">
<rect width="120" height="120" rx="60" fill="white"/>
<g clip-path="url(#clip0_92_313)">
<path d="M34.7705 96.12C34.9805 96.27 35.2205 96.42 35.4305 96.57C35.6705 96.72 35.8805 96.87 36.1205 96.99C36.3305 97.11 36.5105 97.23 36.7205 97.35C36.7505 97.38 36.7805 97.38 36.8105 97.41C37.5005 97.83 38.2205 98.22 38.9405 98.58C39.1505 98.7 39.3905 98.82 39.6005 98.91C39.6005 98.91 39.6305 98.94 39.6605 98.94L40.3805 99.3C40.8605 99.54 41.3705 99.75 41.8505 99.96C42.0905 100.08 42.3605 100.17 42.6005 100.26C42.8405 100.35 43.1105 100.47 43.3505 100.56C43.5905 100.65 43.8605 100.77 44.1005 100.86H44.1305C44.3705 100.95 44.6405 101.04 44.8805 101.13C45.4205 101.31 45.9905 101.49 46.5305 101.67C46.7105 101.73 46.9205 101.79 47.1005 101.85C47.6705 102.03 48.2405 102.18 48.8105 102.3C49.0205 102.36 49.2305 102.39 49.4705 102.45C50.0105 102.57 50.5805 102.69 51.1205 102.81C51.2405 102.84 51.3305 102.84 51.4505 102.87C51.6305 102.9 51.8405 102.93 52.0205 102.96C52.2905 102.99 52.5305 103.05 52.8005 103.08C52.9205 103.11 53.0405 103.11 53.1605 103.14C53.3105 103.17 53.4905 103.2 53.6705 103.2C54.1505 103.26 54.6605 103.32 55.1405 103.38C55.2905 103.41 55.4705 103.41 55.6205 103.44H55.6505C55.8605 103.47 56.0705 103.47 56.2805 103.5C56.4905 103.53 56.7005 103.53 56.9105 103.53C57.0305 103.53 57.1805 103.56 57.3005 103.56C57.5405 103.56 57.7505 103.59 57.9605 103.59C58.2605 103.59 58.5305 103.62 58.8305 103.62H60.3305C72.9905 103.44 84.3605 98.07 92.4905 89.55C92.4905 89.55 92.4905 89.52 92.5205 89.52C93.4205 88.71 92.6405 84.39 89.0105 81.66C84.4505 78.21 73.5305 76.05 73.5305 76.05C73.5305 76.05 69.3005 75.36 53.6105 78.63C44.4305 80.55 37.4405 83.34 33.5405 90.9C32.7305 92.46 31.9205 94.86 34.7705 96.12Z" fill="#F7F7F7"/>
<path d="M53.5206 78.3C47.7606 79.47 41.6106 80.73 36.8706 84.54C35.2806 85.83 34.2306 87.72 33.3606 89.55C32.9406 90.45 32.5206 91.38 32.1906 92.37C32.0106 93.03 31.7406 93.78 31.8906 94.56C31.9206 94.77 32.1006 95.04 32.2506 95.19C32.9406 95.88 33.6906 96.3 34.4406 96.84C38.8506 99.9 43.9206 102.06 49.1706 103.2C60.8706 105.75 73.5306 103.77 83.8206 97.62C87.2406 95.55 90.3906 93.03 93.0906 90.06C93.3906 89.7 93.3906 89.1 93.3906 88.71C93.3606 87.81 93.1206 86.94 92.8206 86.13C92.1006 84.27 91.1706 82.41 89.5806 81.12C88.4406 80.34 87.2106 79.68 85.9506 79.14C81.9906 77.46 77.8206 76.29 73.5306 75.81C73.1706 75.78 73.1106 76.29 73.4706 76.35C77.5806 77.19 81.6606 78.45 85.4706 80.16C86.8506 80.85 88.3206 81.45 89.4306 82.53C90.4806 83.67 91.2306 85.08 91.8306 86.52C92.2206 87.39 92.4906 88.77 92.3706 89.46C90.4806 91.71 88.2606 93.69 85.8606 95.4C72.7206 104.58 52.7706 105.18 38.7906 97.53C37.5306 96.84 36.3006 96.06 35.1306 95.25C34.5606 94.86 33.9606 94.53 33.5106 94.08C33.4806 94.05 33.5106 94.08 33.5106 94.11C33.5106 94.14 33.5406 94.17 33.5406 94.17C33.5106 93.81 33.6306 93.33 33.7806 92.85C34.3206 91.11 35.1906 89.28 36.1206 87.69C37.5906 85.32 40.0806 83.82 42.6006 82.62C44.3406 81.81 46.1706 81.18 48.0306 80.58C49.8906 79.98 51.7806 79.47 53.6706 79.02C54.1506 78.9 54.0006 78.21 53.5206 78.3Z" fill="#171717"/>
</g>
<g clip-path="url(#clip1_92_313)">
<path d="M24.9008 115.8H100.801C100.801 115.8 96.329 106.116 94.3482 95.0753C92.9677 87.4269 91.9473 82.9551 88.0758 80.4879C85.3447 78.7608 77.6616 76.2628 72.1995 75.4609C69.9786 75.1525 65.5669 74.8133 61.7553 75.1217C58.8742 75.4917 52.9319 77.2188 50.651 77.8664C47.2296 78.8533 39.8167 81.7832 36.5454 84.8672C35.2549 86.1008 32.1937 92.2689 30.2129 101.213C27.932 111.39 24.9008 115.8 24.9008 115.8Z" fill="#171717"/>
<path d="M24.1207 115.08C46.2907 115.29 78.7507 115.74 100.651 115.65C101.311 115.68 101.791 114.93 101.491 114.33C98.6107 107.97 96.4207 101.19 95.0707 94.32C93.9607 88.95 93.2707 82.17 87.8407 79.35C85.1707 78 82.3507 77.1 79.5007 76.26C74.4907 74.79 69.1807 74.07 63.9607 74.22C63.1507 74.25 62.3107 74.28 61.4707 74.34C59.6707 74.61 57.9007 75.06 56.1607 75.51C54.6007 75.9 53.0107 76.35 51.4807 76.8C51.3007 76.89 51.2407 77.25 51.1507 77.43C51.0307 77.64 50.8807 77.61 50.6707 77.52C50.5807 77.49 50.4907 77.43 50.4007 77.46C50.1907 77.49 49.8907 77.61 49.6807 77.67C45.0307 79.17 40.3507 80.94 36.4207 83.91C35.8507 84.33 35.4007 84.9 35.0407 85.5C34.3207 86.64 33.7207 87.81 33.1807 89.01C31.5607 92.58 30.3607 96.33 29.4607 100.14C28.2907 104.91 26.9107 109.71 24.4207 113.97L24.3007 114.15L24.2407 114.24C24.0607 114.39 24.0007 114.84 24.1207 115.08ZM25.5007 114.36C25.6507 114.54 25.6207 114.93 25.5007 115.08L25.5307 115.02L25.5907 114.9C26.9707 112.74 27.9907 110.34 28.8607 107.97C29.7607 105.54 30.4507 102.96 31.0507 100.44C31.9207 96.72 33.0607 93.06 34.5907 89.58C35.2507 88.11 35.9107 86.64 36.9007 85.41C37.4707 84.84 38.1307 84.36 38.8207 83.91C42.2707 81.69 46.1407 80.07 50.0407 78.81C50.1907 78.75 50.5507 78.66 50.7307 78.6C50.9107 78.54 50.9107 78.03 51.0307 77.91C51.3007 77.67 51.6007 78.33 51.8707 78.27C53.4007 77.85 54.9907 77.43 56.5507 77.07C58.4107 76.65 60.2407 76.17 62.1007 76.02C70.3207 75.48 78.6307 77.22 86.1907 80.49C89.8507 81.99 91.2307 85.38 92.1007 89.01C92.8807 92.07 93.3307 95.4 94.0507 98.49C95.4307 104.22 97.3507 109.74 99.7807 115.14L100.621 113.82C79.3207 113.76 47.1007 114.09 25.5007 114.36Z" fill="#171717"/>
</g>
<path d="M50.7005 86.28C51.3305 89.37 55.4105 91.23 62.2805 88.44C69.4205 85.56 72.5105 78.69 73.2905 76.65C69.0605 68.73 72.0005 63.24 72.0005 63.24C62.2505 62.4 53.7305 73.8 53.7305 73.8L52.4105 79.44C52.2905 79.92 52.0505 80.34 51.6905 80.64C51.0605 81.75 50.3105 84.3 50.7005 86.28Z" fill="#F7F7F7"/>
<path d="M73.4402 76.74C72.8702 75.87 72.5102 74.85 72.2702 73.86C71.8202 71.79 71.6702 69.69 71.6402 67.59V66.81C71.7302 66.03 72.0002 65.22 72.3002 64.5C72.6902 63.54 71.2802 62.94 70.8302 63.9C70.7702 64.02 70.7702 64.23 70.7702 64.35C70.6802 68.43 70.5002 73.68 73.0802 77.07C73.2602 77.25 73.6202 76.98 73.4402 76.74ZM53.4005 73.74C52.9505 74.01 52.8005 74.37 52.7405 74.73C52.5605 75.45 52.6205 76.23 52.4405 76.98C52.2905 77.7 51.8405 78.39 51.7205 79.14C51.5705 79.92 51.1205 81.57 50.9405 82.38C50.8805 82.56 51.0005 82.77 51.2105 82.8C51.3305 82.83 51.4205 82.8 51.5105 82.74C51.9005 82.41 52.0805 82.08 52.3205 81.66C52.7105 80.94 52.9805 80.28 53.2205 79.47C53.4305 78.75 53.3405 77.97 53.5205 77.22C53.6705 76.5 54.0905 75.81 54.2405 75.06C54.3305 74.7 54.3605 74.31 54.0905 73.86C53.9105 73.68 53.6105 73.62 53.4005 73.74Z" fill="#171717"/>
<path d="M51.2404 81.66C56.9704 81.36 61.6504 79.56 66.2104 71.43C62.3704 74.82 57.8404 76.11 53.0704 76.71L52.4404 79.47C52.3204 79.95 51.6004 81.36 51.2404 81.66Z" fill="#171717"/>
<path d="M51.4804 80.55C50.4604 82.47 49.8604 84.87 50.4904 87C50.9704 88.5 52.3504 89.61 53.8504 90.03C57.3304 90.96 61.3504 89.49 64.4404 87.84C68.2504 85.71 71.0704 82.14 72.8704 78.24C72.9904 77.94 72.5704 77.7 72.3904 78C71.7604 79.26 71.0404 80.49 70.2304 81.6C69.4204 82.74 68.4904 83.79 67.4404 84.72C64.3804 87.48 60.2404 89.19 56.1004 89.19C51.8404 89.07 50.2204 86.82 51.2104 82.68C51.3604 82.02 51.6004 81.33 51.9304 80.76C52.1104 80.52 51.6604 80.25 51.4804 80.55Z" fill="#171717"/>
<path d="M39.8704 44.52C39.3304 47.04 39.7504 48.72 39.9904 55.68C42.7504 67.2 42.5404 73.59 44.0704 75.12C45.2704 76.32 52.4404 77.88 57.7504 76.53C60.4504 75.84 62.7304 74.28 64.5904 73.17C66.9304 71.76 68.7004 67.17 70.3804 64.38C71.7004 62.19 71.8504 65.07 73.5604 63.18C75.9304 60.6 78.7804 55.41 77.3704 46.23C75.0904 31.35 63.3004 29.61 54.5704 31.26C45.8104 32.91 41.3104 37.89 39.8704 44.52Z" fill="#F7F7F7"/>
<path d="M72.0905 65.82C73.1405 64.08 74.6405 62.64 75.6005 60.84C78.5105 55.38 79.1105 48.75 77.4305 42.81C73.9205 30.15 61.2005 28.29 50.1605 32.01C43.9805 34.11 39.6305 39.33 39.0005 45.9C38.9405 48 39.4805 49.95 39.5105 52.02C39.6605 57.48 41.3705 62.73 42.0305 67.98C42.1805 69.63 42.1805 71.37 42.4205 73.05C42.4805 73.41 42.5405 73.74 42.6605 74.13C42.9305 74.94 43.5305 75.51 44.1905 75.96C46.6805 77.49 49.5005 77.76 52.3205 77.91C58.2005 78.15 63.3605 76.44 66.8705 71.55C66.9905 71.37 66.7505 71.16 66.6005 71.34C62.6705 75.54 57.9605 76.89 52.3805 76.62C50.0105 76.5 44.9405 76.05 43.8905 73.74C43.3805 71.85 43.3805 69.87 43.0805 67.89C42.7505 65.55 41.8505 62.28 41.3105 59.97C40.7105 57.36 40.2005 54.72 40.1705 52.05C40.1405 50.7 40.1405 49.35 40.1405 48C40.0805 46.65 40.3505 45.48 40.6805 44.19C41.8805 39.06 45.5705 34.8 50.5505 32.91C55.4405 31.02 61.1105 30.54 66.1205 32.19C71.2205 33.81 74.7005 38.19 76.0205 43.29C76.7105 45.81 77.0705 48.45 77.2505 51.06C77.4005 53.7 77.1305 56.4 76.0805 58.86C75.3305 60.72 74.1005 62.34 72.6605 63.69L71.2505 65.16C70.5905 65.76 71.6105 66.54 72.0905 65.82Z" fill="#171717"/>
<path d="M68.5505 56.28C68.5505 56.28 69.4805 51.78 73.8605 52.32C77.6405 52.8 78.9605 61.86 70.3805 64.38" fill="#F7F7F7"/>
<path d="M70.7703 60.45C71.4603 60.06 71.9403 59.4 71.9703 58.59C71.9403 57.99 71.8503 57.3 72.0003 56.7C72.0903 56.13 72.6903 55.98 73.1403 56.01C73.6203 56.1 73.9203 56.7 74.0103 57.18C74.0103 57.21 74.0403 57.3 74.0403 57.33C74.0703 57.48 74.3103 57.48 74.3703 57.33C74.7603 56.16 73.8903 54.87 72.6303 55.02C70.8603 55.14 70.6203 57 70.9503 58.41C71.1303 59.01 70.8903 59.55 70.5603 60.06L70.5003 60.15C70.3503 60.33 70.5903 60.57 70.7703 60.45ZM46.7706 53.1C46.3206 55.23 45.4806 57.21 44.4306 59.07C43.5006 61.35 45.9006 63.51 48.0306 63.42C48.2706 63.42 48.3006 63.09 48.0906 63.03C46.7406 62.61 45.5106 61.71 45.3006 60.33C45.2106 59.91 45.3306 59.55 45.5406 59.19C46.5306 57.33 47.1306 55.2 46.9806 53.1C46.9806 52.95 46.7706 52.95 46.7706 53.1Z" fill="#171717"/>
<path d="M68.7005 56.31C69.3905 54.54 70.8905 52.86 72.9005 52.89C73.0805 52.86 73.3805 52.92 73.5605 52.92C74.0705 52.95 74.4905 53.13 74.8805 53.49C76.8005 55.41 76.4705 58.8 74.9105 60.93C74.3705 61.68 73.6805 62.34 72.9005 62.88C72.1205 63.42 71.2505 63.84 70.3205 64.2C70.1105 64.26 70.2005 64.59 70.4105 64.56C72.4205 64.14 74.3405 63.15 75.6605 61.5C77.7005 59.04 78.1205 54.93 75.6905 52.53C75.1505 52.05 74.4005 51.69 73.6505 51.69C73.4105 51.69 73.0505 51.63 72.8105 51.69C71.5505 51.75 70.3505 52.38 69.5705 53.37C68.8805 54.21 68.4905 55.23 68.3705 56.25C68.3705 56.43 68.6405 56.49 68.7005 56.31Z" fill="#171717"/>
<path d="M37.5906 37.38C35.4606 29.67 44.1006 24.84 46.4106 28.32C48.0906 30.84 54.5706 28.89 64.4106 28.71C74.2506 28.5 76.8906 33.72 77.0106 39.33C77.0106 39.33 81.3306 41.61 81.0606 49.65C80.7906 57.99 72.2106 64.71 71.1606 68.94C71.1606 68.94 71.0406 69.48 72.1806 63.69C78.7206 60.54 77.3406 52.77 73.8306 52.32C71.1606 51.99 69.7506 53.55 69.0906 54.81C68.8206 55.17 66.2706 58.29 66.2106 48.09C66.1806 41.13 59.4006 38.85 51.6906 41.67C47.6706 43.14 43.4406 44.22 40.5306 42.12C40.0506 43.5 39.5406 45.03 39.9306 46.89C38.7606 45.81 37.7706 44.22 37.5006 42.27C37.3206 41.1 37.6206 40.08 38.2806 39.18C38.0106 38.67 37.7706 38.04 37.5906 37.38Z" fill="#171717"/>
<path d="M56.5508 54.03V54.09L56.5808 54.93C56.6108 55.65 57.2108 56.19 57.9308 56.16C58.6508 56.13 59.1908 55.5 59.1308 54.81L59.1008 53.97C59.1008 53.82 59.0408 53.64 58.9808 53.52L56.5808 53.64C56.5808 53.76 56.5508 53.88 56.5508 54.03ZM44.0108 54.69L44.0408 55.47C44.0708 56.13 44.6408 56.64 45.3008 56.61C45.9608 56.58 46.4708 56.01 46.4408 55.35L46.4108 54.57C46.4108 54.42 46.3808 54.27 46.3208 54.15L44.0708 54.24C44.0408 54.39 44.0108 54.54 44.0108 54.69ZM53.5508 49.92C52.8908 50.01 52.3808 49.32 52.6208 48.66C52.7408 48.3 52.9508 47.97 53.2808 47.76C54.3008 47.13 58.1108 47.07 60.1208 48.51C61.9208 49.83 56.5508 49.5 53.5508 49.92ZM45.2408 50.25C45.7808 50.25 46.1108 49.56 45.8408 48.99C45.6908 48.69 45.4808 48.42 45.1808 48.27C44.2508 47.82 41.7608 48.09 40.6508 49.62C39.6608 50.97 42.7508 50.22 45.2408 50.25Z" fill="#171717"/>
<path d="M54.6308 54.03L59.5808 53.94C60.1808 53.91 60.1508 53.01 59.5508 53.04L54.6008 53.4C54.1808 53.43 54.2108 54.03 54.6308 54.03ZM42.7505 54.54L46.4105 54.6C47.0105 54.6 47.0405 53.73 46.4405 53.7H46.3805L42.7205 54.09C42.4505 54.12 42.4805 54.51 42.7505 54.54Z" fill="#171717"/>
<path d="M49.7405 66.3C49.7105 67.29 51.1805 69.81 54.0005 68.64C56.7305 67.53 57.5405 62.31 53.6405 64.8C51.6605 66.12 50.4005 66.33 49.7405 66.3Z" fill="#F7F7F7"/>
<path d="M49.1104 66.33C49.9204 66.6 50.7004 66.36 51.4504 66.09C52.5604 65.7 53.4604 64.98 54.5104 64.47C55.9504 63.78 56.5204 64.71 56.1304 66.06C55.7404 67.5 54.4804 68.76 52.9204 68.82C51.5404 68.97 50.0704 67.71 50.1904 66.3C50.3104 65.7 49.4404 65.52 49.2904 66.09C49.3204 67.11 49.9504 67.83 50.6104 68.43C51.9304 69.51 53.9404 69.27 55.2604 68.28C56.2804 67.47 57.1204 66.18 56.9404 64.8C56.8804 64.2 56.3104 63.51 55.6804 63.48C54.2104 63.36 53.3404 64.35 52.2004 65.01C51.3004 65.52 50.2804 66.15 49.2304 66.06C49.0504 66 48.9304 66.24 49.1104 66.33Z" fill="#171717"/>
<path d="M56.071 65.22C55.591 65.91 54.841 66.27 54.061 66.45C53.881 66.51 53.731 66.51 53.581 66.51C53.311 66.51 53.041 66.72 52.891 66.87C52.171 67.44 51.181 67.53 50.281 67.56C50.071 67.56 50.071 67.92 50.281 67.89C51.241 67.83 52.261 67.74 53.161 67.29C53.341 67.23 53.431 67.17 53.581 67.17C54.151 67.23 54.601 66.87 55.021 66.63C55.501 66.36 55.981 66.09 56.551 65.97C56.821 65.91 56.971 65.67 56.941 65.4C56.881 64.98 56.281 64.86 56.071 65.22Z" fill="#171717"/>
<path d="M44.1005 66.6C42.4505 64.8 44.0705 66.5715 44.4605 64.2015C44.6105 63.3015 45.1505 61.8015 45.9905 62.4615C46.3205 62.7315 48.0305 63.2715 48.3605 63.3015C49.3205 63.3915 50.0405 63.2715 50.7305 62.7315C51.5105 62.1015 51.5105 61.8315 51.6905 61.7715C54.8405 60.7215 58.8005 59.6715 60.0905 63.9015C61.5005 67.05 61.1405 67.3515 60.0905 63.9015C61.5905 61.3515 67.1405 59.9715 67.3505 58.9515C67.8605 56.4315 68.5805 55.2015 69.0005 55.5615C69.0005 56.3715 68.7305 65.9415 68.7005 66.4515C68.4905 69.0915 68.1605 69.9315 66.9605 71.6415C65.7605 73.3515 61.5605 78.0015 56.1005 78.3915C50.6105 78.7815 47.5805 78.3315 44.5205 74.8215C41.7605 71.6415 41.6705 65.0415 41.6705 65.0415C44.7005 65.7 43.3805 65.61 44.1005 66.6ZM57.0305 64.5915C55.4705 62.8815 53.1905 64.8615 50.7305 65.0415C48.3005 65.2215 47.3105 63.6915 47.1305 66.3915C47.0705 67.0515 46.9805 68.1615 47.0105 68.9115V69.0015C47.1005 69.8415 47.3705 70.7715 48.2105 71.2815C49.9805 72.3915 52.8305 72.1215 54.6605 71.7615C57.2105 71.2515 57.7505 70.0815 57.8705 69.5415C58.0505 67.2315 57.6605 65.2815 57.0305 64.5915Z" fill="#171717"/>
<path d="M53.1005 59.88C54.4805 59.91 58.7405 59.94 60.0605 59.97C62.3405 60 64.0505 58.02 63.8405 55.77C63.8105 55.02 63.8405 53.97 63.8105 53.22C63.7505 51.27 62.0105 49.62 60.0605 49.68L54.9905 49.74C54.6005 49.74 53.4905 49.77 53.1005 49.77C51.4805 49.74 49.9505 50.94 49.5905 52.53C49.4705 52.98 49.5005 53.46 49.5005 53.85V56.4C49.5305 58.29 51.2105 59.91 53.1005 59.88ZM53.1005 59.22C51.5405 59.28 50.1005 57.93 50.0705 56.37C50.0405 55.56 50.0705 54.69 50.0705 53.85C49.8905 52.02 51.2705 50.34 53.1305 50.4C54.4205 50.43 58.7405 50.46 60.0905 50.49C61.7105 50.49 63.0905 51.96 62.9705 53.58V54.54C62.9405 55.2 63.0305 56.34 62.8805 56.94C62.5805 58.2 61.3805 59.16 60.0905 59.16H59.4605C58.5905 59.16 54.0005 59.22 53.1005 59.22ZM41.0108 50.55L43.3808 50.58C44.0408 50.61 44.8208 50.49 45.3908 50.88C45.9308 51.24 46.1708 51.9 46.1408 52.53C46.1408 53.31 46.1408 54.12 46.1708 54.9L46.2008 54.78C45.7808 56.25 45.2108 57.66 44.3408 58.89L44.6408 58.71C44.4008 58.77 43.9808 58.77 43.7408 58.77C42.8408 58.8 41.7908 58.86 40.8908 58.86C40.0508 58.86 39.2408 58.23 39.0608 57.39C39.0008 57.15 39.0008 56.73 39.0008 56.49C39.0008 55.2 38.9708 53.94 39.0308 52.65C38.9708 51.51 39.8408 50.49 41.0108 50.55ZM41.0108 49.65C39.4208 49.65 38.3108 51.18 38.5808 52.68C38.6408 53.97 38.6108 55.23 38.6108 56.52C38.4608 58.02 39.3608 59.37 40.9208 59.49C41.5808 59.52 42.2108 59.52 42.8408 59.55C43.1708 59.55 43.9808 59.61 44.2808 59.61C44.4308 59.64 44.6708 59.61 44.8208 59.61C44.9408 59.61 45.0608 59.52 45.1208 59.43C46.0508 58.05 46.7108 56.52 47.1008 54.93C47.1008 53.91 47.1908 52.89 47.1008 51.87C46.9208 50.67 45.8408 49.65 44.6108 49.62C43.7708 49.59 41.8508 49.65 41.0108 49.65Z" fill="#171717"/>
<path d="M49.8306 52.41C49.0206 52.05 48.1206 51.9 47.2206 51.96C46.9206 51.99 46.6206 52.08 46.3506 52.32L45.9606 52.65C45.5706 52.98 46.0506 53.55 46.4406 53.22C46.9206 52.8 47.4906 52.86 48.0606 52.89C48.6306 52.95 49.1706 53.07 49.7106 53.28C50.2206 53.49 50.5506 52.74 50.0706 52.5L49.8306 52.41ZM63.3306 53.49C63.5406 53.97 63.7806 54.03 64.1706 54L65.0406 54.03C66.7806 54.03 68.5506 54 70.2906 53.73C70.8906 53.7 70.9206 52.86 70.3206 52.83L63.3606 52.59C63.1506 52.59 63.0006 52.8 63.0906 52.98L63.3306 53.49Z" fill="#171717"/>
<rect width="120" height="120" rx="60" fill="url(#paint0_linear_92_313)"/>
<g clip-path="url(#clip2_92_313)">
<path d="M34.7705 96.12C34.9805 96.27 35.2205 96.42 35.4305 96.57C35.6705 96.72 35.8805 96.87 36.1205 96.99C36.3305 97.11 36.5105 97.23 36.7205 97.35C36.7505 97.38 36.7805 97.38 36.8105 97.41C37.5005 97.83 38.2205 98.22 38.9405 98.58C39.1505 98.7 39.3905 98.82 39.6005 98.91C39.6005 98.91 39.6305 98.94 39.6605 98.94L40.3805 99.3C40.8605 99.54 41.3705 99.75 41.8505 99.96C42.0905 100.08 42.3605 100.17 42.6005 100.26C42.8405 100.35 43.1105 100.47 43.3505 100.56C43.5905 100.65 43.8605 100.77 44.1005 100.86H44.1305C44.3705 100.95 44.6405 101.04 44.8805 101.13C45.4205 101.31 45.9905 101.49 46.5305 101.67C46.7105 101.73 46.9205 101.79 47.1005 101.85C47.6705 102.03 48.2405 102.18 48.8105 102.3C49.0205 102.36 49.2305 102.39 49.4705 102.45C50.0105 102.57 50.5805 102.69 51.1205 102.81C51.2405 102.84 51.3305 102.84 51.4505 102.87C51.6305 102.9 51.8405 102.93 52.0205 102.96C52.2905 102.99 52.5305 103.05 52.8005 103.08C52.9205 103.11 53.0405 103.11 53.1605 103.14C53.3105 103.17 53.4905 103.2 53.6705 103.2C54.1505 103.26 54.6605 103.32 55.1405 103.38C55.2905 103.41 55.4705 103.41 55.6205 103.44H55.6505C55.8605 103.47 56.0705 103.47 56.2805 103.5C56.4905 103.53 56.7005 103.53 56.9105 103.53C57.0305 103.53 57.1805 103.56 57.3005 103.56C57.5405 103.56 57.7505 103.59 57.9605 103.59C58.2605 103.59 58.5305 103.62 58.8305 103.62H60.3305C72.9905 103.44 84.3605 98.07 92.4905 89.55C92.4905 89.55 92.4905 89.52 92.5205 89.52C93.4205 88.71 92.6405 84.39 89.0105 81.66C84.4505 78.21 73.5305 76.05 73.5305 76.05C73.5305 76.05 69.3005 75.36 53.6105 78.63C44.4305 80.55 37.4405 83.34 33.5405 90.9C32.7305 92.46 31.9205 94.86 34.7705 96.12Z" fill="#F7F7F7"/>
<path d="M53.5206 78.3C47.7606 79.47 41.6106 80.73 36.8706 84.54C35.2806 85.83 34.2306 87.72 33.3606 89.55C32.9406 90.45 32.5206 91.38 32.1906 92.37C32.0106 93.03 31.7406 93.78 31.8906 94.56C31.9206 94.77 32.1006 95.04 32.2506 95.19C32.9406 95.88 33.6906 96.3 34.4406 96.84C38.8506 99.9 43.9206 102.06 49.1706 103.2C60.8706 105.75 73.5306 103.77 83.8206 97.62C87.2406 95.55 90.3906 93.03 93.0906 90.06C93.3906 89.7 93.3906 89.1 93.3906 88.71C93.3606 87.81 93.1206 86.94 92.8206 86.13C92.1006 84.27 91.1706 82.41 89.5806 81.12C88.4406 80.34 87.2106 79.68 85.9506 79.14C81.9906 77.46 77.8206 76.29 73.5306 75.81C73.1706 75.78 73.1106 76.29 73.4706 76.35C77.5806 77.19 81.6606 78.45 85.4706 80.16C86.8506 80.85 88.3206 81.45 89.4306 82.53C90.4806 83.67 91.2306 85.08 91.8306 86.52C92.2206 87.39 92.4906 88.77 92.3706 89.46C90.4806 91.71 88.2606 93.69 85.8606 95.4C72.7206 104.58 52.7706 105.18 38.7906 97.53C37.5306 96.84 36.3006 96.06 35.1306 95.25C34.5606 94.86 33.9606 94.53 33.5106 94.08C33.4806 94.05 33.5106 94.08 33.5106 94.11C33.5106 94.14 33.5406 94.17 33.5406 94.17C33.5106 93.81 33.6306 93.33 33.7806 92.85C34.3206 91.11 35.1906 89.28 36.1206 87.69C37.5906 85.32 40.0806 83.82 42.6006 82.62C44.3406 81.81 46.1706 81.18 48.0306 80.58C49.8906 79.98 51.7806 79.47 53.6706 79.02C54.1506 78.9 54.0006 78.21 53.5206 78.3Z" fill="#171717"/>
</g>
<g clip-path="url(#clip3_92_313)">
<path d="M24.9008 115.8H100.801C100.801 115.8 96.329 106.116 94.3482 95.0753C92.9677 87.4269 91.9473 82.9551 88.0758 80.4879C85.3447 78.7608 77.6616 76.2628 72.1995 75.4609C69.9786 75.1525 65.5669 74.8133 61.7553 75.1217C58.8742 75.4917 52.9319 77.2188 50.651 77.8664C47.2296 78.8533 39.8167 81.7832 36.5454 84.8672C35.2549 86.1008 32.1937 92.2689 30.2129 101.213C27.932 111.39 24.9008 115.8 24.9008 115.8Z" fill="#171717"/>
<path d="M24.1207 115.08C46.2907 115.29 78.7507 115.74 100.651 115.65C101.311 115.68 101.791 114.93 101.491 114.33C98.6107 107.97 96.4207 101.19 95.0707 94.32C93.9607 88.95 93.2707 82.17 87.8407 79.35C85.1707 78 82.3507 77.1 79.5007 76.26C74.4907 74.79 69.1807 74.07 63.9607 74.22C63.1507 74.25 62.3107 74.28 61.4707 74.34C59.6707 74.61 57.9007 75.06 56.1607 75.51C54.6007 75.9 53.0107 76.35 51.4807 76.8C51.3007 76.89 51.2407 77.25 51.1507 77.43C51.0307 77.64 50.8807 77.61 50.6707 77.52C50.5807 77.49 50.4907 77.43 50.4007 77.46C50.1907 77.49 49.8907 77.61 49.6807 77.67C45.0307 79.17 40.3507 80.94 36.4207 83.91C35.8507 84.33 35.4007 84.9 35.0407 85.5C34.3207 86.64 33.7207 87.81 33.1807 89.01C31.5607 92.58 30.3607 96.33 29.4607 100.14C28.2907 104.91 26.9107 109.71 24.4207 113.97L24.3007 114.15L24.2407 114.24C24.0607 114.39 24.0007 114.84 24.1207 115.08ZM25.5007 114.36C25.6507 114.54 25.6207 114.93 25.5007 115.08L25.5307 115.02L25.5907 114.9C26.9707 112.74 27.9907 110.34 28.8607 107.97C29.7607 105.54 30.4507 102.96 31.0507 100.44C31.9207 96.72 33.0607 93.06 34.5907 89.58C35.2507 88.11 35.9107 86.64 36.9007 85.41C37.4707 84.84 38.1307 84.36 38.8207 83.91C42.2707 81.69 46.1407 80.07 50.0407 78.81C50.1907 78.75 50.5507 78.66 50.7307 78.6C50.9107 78.54 50.9107 78.03 51.0307 77.91C51.3007 77.67 51.6007 78.33 51.8707 78.27C53.4007 77.85 54.9907 77.43 56.5507 77.07C58.4107 76.65 60.2407 76.17 62.1007 76.02C70.3207 75.48 78.6307 77.22 86.1907 80.49C89.8507 81.99 91.2307 85.38 92.1007 89.01C92.8807 92.07 93.3307 95.4 94.0507 98.49C95.4307 104.22 97.3507 109.74 99.7807 115.14L100.621 113.82C79.3207 113.76 47.1007 114.09 25.5007 114.36Z" fill="#171717"/>
</g>
<path d="M50.7005 86.28C51.3305 89.37 55.4105 91.23 62.2805 88.44C69.4205 85.56 72.5105 78.69 73.2905 76.65C69.0605 68.73 72.0005 63.24 72.0005 63.24C62.2505 62.4 53.7305 73.8 53.7305 73.8L52.4105 79.44C52.2905 79.92 52.0505 80.34 51.6905 80.64C51.0605 81.75 50.3105 84.3 50.7005 86.28Z" fill="#F7F7F7"/>
<path d="M73.4402 76.74C72.8702 75.87 72.5102 74.85 72.2702 73.86C71.8202 71.79 71.6702 69.69 71.6402 67.59V66.81C71.7302 66.03 72.0002 65.22 72.3002 64.5C72.6902 63.54 71.2802 62.94 70.8302 63.9C70.7702 64.02 70.7702 64.23 70.7702 64.35C70.6802 68.43 70.5002 73.68 73.0802 77.07C73.2602 77.25 73.6202 76.98 73.4402 76.74ZM53.4005 73.74C52.9505 74.01 52.8005 74.37 52.7405 74.73C52.5605 75.45 52.6205 76.23 52.4405 76.98C52.2905 77.7 51.8405 78.39 51.7205 79.14C51.5705 79.92 51.1205 81.57 50.9405 82.38C50.8805 82.56 51.0005 82.77 51.2105 82.8C51.3305 82.83 51.4205 82.8 51.5105 82.74C51.9005 82.41 52.0805 82.08 52.3205 81.66C52.7105 80.94 52.9805 80.28 53.2205 79.47C53.4305 78.75 53.3405 77.97 53.5205 77.22C53.6705 76.5 54.0905 75.81 54.2405 75.06C54.3305 74.7 54.3605 74.31 54.0905 73.86C53.9105 73.68 53.6105 73.62 53.4005 73.74Z" fill="#171717"/>
<path d="M51.2404 81.66C56.9704 81.36 61.6504 79.56 66.2104 71.43C62.3704 74.82 57.8404 76.11 53.0704 76.71L52.4404 79.47C52.3204 79.95 51.6004 81.36 51.2404 81.66Z" fill="#171717"/>
<path d="M51.4804 80.55C50.4604 82.47 49.8604 84.87 50.4904 87C50.9704 88.5 52.3504 89.61 53.8504 90.03C57.3304 90.96 61.3504 89.49 64.4404 87.84C68.2504 85.71 71.0704 82.14 72.8704 78.24C72.9904 77.94 72.5704 77.7 72.3904 78C71.7604 79.26 71.0404 80.49 70.2304 81.6C69.4204 82.74 68.4904 83.79 67.4404 84.72C64.3804 87.48 60.2404 89.19 56.1004 89.19C51.8404 89.07 50.2204 86.82 51.2104 82.68C51.3604 82.02 51.6004 81.33 51.9304 80.76C52.1104 80.52 51.6604 80.25 51.4804 80.55Z" fill="#171717"/>
<path d="M39.8704 44.52C39.3304 47.04 39.7504 48.72 39.9904 55.68C42.7504 67.2 42.5404 73.59 44.0704 75.12C45.2704 76.32 52.4404 77.88 57.7504 76.53C60.4504 75.84 62.7304 74.28 64.5904 73.17C66.9304 71.76 68.7004 67.17 70.3804 64.38C71.7004 62.19 71.8504 65.07 73.5604 63.18C75.9304 60.6 78.7804 55.41 77.3704 46.23C75.0904 31.35 63.3004 29.61 54.5704 31.26C45.8104 32.91 41.3104 37.89 39.8704 44.52Z" fill="#F7F7F7"/>
<path d="M72.0905 65.82C73.1405 64.08 74.6405 62.64 75.6005 60.84C78.5105 55.38 79.1105 48.75 77.4305 42.81C73.9205 30.15 61.2005 28.29 50.1605 32.01C43.9805 34.11 39.6305 39.33 39.0005 45.9C38.9405 48 39.4805 49.95 39.5105 52.02C39.6605 57.48 41.3705 62.73 42.0305 67.98C42.1805 69.63 42.1805 71.37 42.4205 73.05C42.4805 73.41 42.5405 73.74 42.6605 74.13C42.9305 74.94 43.5305 75.51 44.1905 75.96C46.6805 77.49 49.5005 77.76 52.3205 77.91C58.2005 78.15 63.3605 76.44 66.8705 71.55C66.9905 71.37 66.7505 71.16 66.6005 71.34C62.6705 75.54 57.9605 76.89 52.3805 76.62C50.0105 76.5 44.9405 76.05 43.8905 73.74C43.3805 71.85 43.3805 69.87 43.0805 67.89C42.7505 65.55 41.8505 62.28 41.3105 59.97C40.7105 57.36 40.2005 54.72 40.1705 52.05C40.1405 50.7 40.1405 49.35 40.1405 48C40.0805 46.65 40.3505 45.48 40.6805 44.19C41.8805 39.06 45.5705 34.8 50.5505 32.91C55.4405 31.02 61.1105 30.54 66.1205 32.19C71.2205 33.81 74.7005 38.19 76.0205 43.29C76.7105 45.81 77.0705 48.45 77.2505 51.06C77.4005 53.7 77.1305 56.4 76.0805 58.86C75.3305 60.72 74.1005 62.34 72.6605 63.69L71.2505 65.16C70.5905 65.76 71.6105 66.54 72.0905 65.82Z" fill="#171717"/>
<path d="M68.5505 56.28C68.5505 56.28 69.4805 51.78 73.8605 52.32C77.6405 52.8 78.9605 61.86 70.3805 64.38" fill="#F7F7F7"/>
<path d="M70.7703 60.45C71.4603 60.06 71.9403 59.4 71.9703 58.59C71.9403 57.99 71.8503 57.3 72.0003 56.7C72.0903 56.13 72.6903 55.98 73.1403 56.01C73.6203 56.1 73.9203 56.7 74.0103 57.18C74.0103 57.21 74.0403 57.3 74.0403 57.33C74.0703 57.48 74.3103 57.48 74.3703 57.33C74.7603 56.16 73.8903 54.87 72.6303 55.02C70.8603 55.14 70.6203 57 70.9503 58.41C71.1303 59.01 70.8903 59.55 70.5603 60.06L70.5003 60.15C70.3503 60.33 70.5903 60.57 70.7703 60.45ZM46.7706 53.1C46.3206 55.23 45.4806 57.21 44.4306 59.07C43.5006 61.35 45.9006 63.51 48.0306 63.42C48.2706 63.42 48.3006 63.09 48.0906 63.03C46.7406 62.61 45.5106 61.71 45.3006 60.33C45.2106 59.91 45.3306 59.55 45.5406 59.19C46.5306 57.33 47.1306 55.2 46.9806 53.1C46.9806 52.95 46.7706 52.95 46.7706 53.1Z" fill="#171717"/>
<path d="M68.7005 56.31C69.3905 54.54 70.8905 52.86 72.9005 52.89C73.0805 52.86 73.3805 52.92 73.5605 52.92C74.0705 52.95 74.4905 53.13 74.8805 53.49C76.8005 55.41 76.4705 58.8 74.9105 60.93C74.3705 61.68 73.6805 62.34 72.9005 62.88C72.1205 63.42 71.2505 63.84 70.3205 64.2C70.1105 64.26 70.2005 64.59 70.4105 64.56C72.4205 64.14 74.3405 63.15 75.6605 61.5C77.7005 59.04 78.1205 54.93 75.6905 52.53C75.1505 52.05 74.4005 51.69 73.6505 51.69C73.4105 51.69 73.0505 51.63 72.8105 51.69C71.5505 51.75 70.3505 52.38 69.5705 53.37C68.8805 54.21 68.4905 55.23 68.3705 56.25C68.3705 56.43 68.6405 56.49 68.7005 56.31Z" fill="#171717"/>
<path d="M37.5906 37.38C35.4606 29.67 44.1006 24.84 46.4106 28.32C48.0906 30.84 54.5706 28.89 64.4106 28.71C74.2506 28.5 76.8906 33.72 77.0106 39.33C77.0106 39.33 81.3306 41.61 81.0606 49.65C80.7906 57.99 72.2106 64.71 71.1606 68.94C71.1606 68.94 71.0406 69.48 72.1806 63.69C78.7206 60.54 77.3406 52.77 73.8306 52.32C71.1606 51.99 69.7506 53.55 69.0906 54.81C68.8206 55.17 66.2706 58.29 66.2106 48.09C66.1806 41.13 59.4006 38.85 51.6906 41.67C47.6706 43.14 43.4406 44.22 40.5306 42.12C40.0506 43.5 39.5406 45.03 39.9306 46.89C38.7606 45.81 37.7706 44.22 37.5006 42.27C37.3206 41.1 37.6206 40.08 38.2806 39.18C38.0106 38.67 37.7706 38.04 37.5906 37.38Z" fill="#171717"/>
<path d="M56.5508 54.03V54.09L56.5808 54.93C56.6108 55.65 57.2108 56.19 57.9308 56.16C58.6508 56.13 59.1908 55.5 59.1308 54.81L59.1008 53.97C59.1008 53.82 59.0408 53.64 58.9808 53.52L56.5808 53.64C56.5808 53.76 56.5508 53.88 56.5508 54.03ZM44.0108 54.69L44.0408 55.47C44.0708 56.13 44.6408 56.64 45.3008 56.61C45.9608 56.58 46.4708 56.01 46.4408 55.35L46.4108 54.57C46.4108 54.42 46.3808 54.27 46.3208 54.15L44.0708 54.24C44.0408 54.39 44.0108 54.54 44.0108 54.69ZM53.5508 49.92C52.8908 50.01 52.3808 49.32 52.6208 48.66C52.7408 48.3 52.9508 47.97 53.2808 47.76C54.3008 47.13 58.1108 47.07 60.1208 48.51C61.9208 49.83 56.5508 49.5 53.5508 49.92ZM45.2408 50.25C45.7808 50.25 46.1108 49.56 45.8408 48.99C45.6908 48.69 45.4808 48.42 45.1808 48.27C44.2508 47.82 41.7608 48.09 40.6508 49.62C39.6608 50.97 42.7508 50.22 45.2408 50.25Z" fill="#171717"/>
<path d="M54.6308 54.03L59.5808 53.94C60.1808 53.91 60.1508 53.01 59.5508 53.04L54.6008 53.4C54.1808 53.43 54.2108 54.03 54.6308 54.03ZM42.7505 54.54L46.4105 54.6C47.0105 54.6 47.0405 53.73 46.4405 53.7H46.3805L42.7205 54.09C42.4505 54.12 42.4805 54.51 42.7505 54.54Z" fill="#171717"/>
<path d="M49.7405 66.3C49.7105 67.29 51.1805 69.81 54.0005 68.64C56.7305 67.53 57.5405 62.31 53.6405 64.8C51.6605 66.12 50.4005 66.33 49.7405 66.3Z" fill="#F7F7F7"/>
<path d="M49.1104 66.33C49.9204 66.6 50.7004 66.36 51.4504 66.09C52.5604 65.7 53.4604 64.98 54.5104 64.47C55.9504 63.78 56.5204 64.71 56.1304 66.06C55.7404 67.5 54.4804 68.76 52.9204 68.82C51.5404 68.97 50.0704 67.71 50.1904 66.3C50.3104 65.7 49.4404 65.52 49.2904 66.09C49.3204 67.11 49.9504 67.83 50.6104 68.43C51.9304 69.51 53.9404 69.27 55.2604 68.28C56.2804 67.47 57.1204 66.18 56.9404 64.8C56.8804 64.2 56.3104 63.51 55.6804 63.48C54.2104 63.36 53.3404 64.35 52.2004 65.01C51.3004 65.52 50.2804 66.15 49.2304 66.06C49.0504 66 48.9304 66.24 49.1104 66.33Z" fill="#171717"/>
<path d="M56.071 65.22C55.591 65.91 54.841 66.27 54.061 66.45C53.881 66.51 53.731 66.51 53.581 66.51C53.311 66.51 53.041 66.72 52.891 66.87C52.171 67.44 51.181 67.53 50.281 67.56C50.071 67.56 50.071 67.92 50.281 67.89C51.241 67.83 52.261 67.74 53.161 67.29C53.341 67.23 53.431 67.17 53.581 67.17C54.151 67.23 54.601 66.87 55.021 66.63C55.501 66.36 55.981 66.09 56.551 65.97C56.821 65.91 56.971 65.67 56.941 65.4C56.881 64.98 56.281 64.86 56.071 65.22Z" fill="#171717"/>
<path d="M44.1005 66.6C42.4505 64.8 44.0705 66.5715 44.4605 64.2015C44.6105 63.3015 45.1505 61.8015 45.9905 62.4615C46.3205 62.7315 48.0305 63.2715 48.3605 63.3015C49.3205 63.3915 50.0405 63.2715 50.7305 62.7315C51.5105 62.1015 51.5105 61.8315 51.6905 61.7715C54.8405 60.7215 58.8005 59.6715 60.0905 63.9015C61.5005 67.05 61.1405 67.3515 60.0905 63.9015C61.5905 61.3515 67.1405 59.9715 67.3505 58.9515C67.8605 56.4315 68.5805 55.2015 69.0005 55.5615C69.0005 56.3715 68.7305 65.9415 68.7005 66.4515C68.4905 69.0915 68.1605 69.9315 66.9605 71.6415C65.7605 73.3515 61.5605 78.0015 56.1005 78.3915C50.6105 78.7815 47.5805 78.3315 44.5205 74.8215C41.7605 71.6415 41.6705 65.0415 41.6705 65.0415C44.7005 65.7 43.3805 65.61 44.1005 66.6ZM57.0305 64.5915C55.4705 62.8815 53.1905 64.8615 50.7305 65.0415C48.3005 65.2215 47.3105 63.6915 47.1305 66.3915C47.0705 67.0515 46.9805 68.1615 47.0105 68.9115V69.0015C47.1005 69.8415 47.3705 70.7715 48.2105 71.2815C49.9805 72.3915 52.8305 72.1215 54.6605 71.7615C57.2105 71.2515 57.7505 70.0815 57.8705 69.5415C58.0505 67.2315 57.6605 65.2815 57.0305 64.5915Z" fill="#171717"/>
<path d="M53.1005 59.88C54.4805 59.91 58.7405 59.94 60.0605 59.97C62.3405 60 64.0505 58.02 63.8405 55.77C63.8105 55.02 63.8405 53.97 63.8105 53.22C63.7505 51.27 62.0105 49.62 60.0605 49.68L54.9905 49.74C54.6005 49.74 53.4905 49.77 53.1005 49.77C51.4805 49.74 49.9505 50.94 49.5905 52.53C49.4705 52.98 49.5005 53.46 49.5005 53.85V56.4C49.5305 58.29 51.2105 59.91 53.1005 59.88ZM53.1005 59.22C51.5405 59.28 50.1005 57.93 50.0705 56.37C50.0405 55.56 50.0705 54.69 50.0705 53.85C49.8905 52.02 51.2705 50.34 53.1305 50.4C54.4205 50.43 58.7405 50.46 60.0905 50.49C61.7105 50.49 63.0905 51.96 62.9705 53.58V54.54C62.9405 55.2 63.0305 56.34 62.8805 56.94C62.5805 58.2 61.3805 59.16 60.0905 59.16H59.4605C58.5905 59.16 54.0005 59.22 53.1005 59.22ZM41.0108 50.55L43.3808 50.58C44.0408 50.61 44.8208 50.49 45.3908 50.88C45.9308 51.24 46.1708 51.9 46.1408 52.53C46.1408 53.31 46.1408 54.12 46.1708 54.9L46.2008 54.78C45.7808 56.25 45.2108 57.66 44.3408 58.89L44.6408 58.71C44.4008 58.77 43.9808 58.77 43.7408 58.77C42.8408 58.8 41.7908 58.86 40.8908 58.86C40.0508 58.86 39.2408 58.23 39.0608 57.39C39.0008 57.15 39.0008 56.73 39.0008 56.49C39.0008 55.2 38.9708 53.94 39.0308 52.65C38.9708 51.51 39.8408 50.49 41.0108 50.55ZM41.0108 49.65C39.4208 49.65 38.3108 51.18 38.5808 52.68C38.6408 53.97 38.6108 55.23 38.6108 56.52C38.4608 58.02 39.3608 59.37 40.9208 59.49C41.5808 59.52 42.2108 59.52 42.8408 59.55C43.1708 59.55 43.9808 59.61 44.2808 59.61C44.4308 59.64 44.6708 59.61 44.8208 59.61C44.9408 59.61 45.0608 59.52 45.1208 59.43C46.0508 58.05 46.7108 56.52 47.1008 54.93C47.1008 53.91 47.1908 52.89 47.1008 51.87C46.9208 50.67 45.8408 49.65 44.6108 49.62C43.7708 49.59 41.8508 49.65 41.0108 49.65Z" fill="#171717"/>
<path d="M49.8306 52.41C49.0206 52.05 48.1206 51.9 47.2206 51.96C46.9206 51.99 46.6206 52.08 46.3506 52.32L45.9606 52.65C45.5706 52.98 46.0506 53.55 46.4406 53.22C46.9206 52.8 47.4906 52.86 48.0606 52.89C48.6306 52.95 49.1706 53.07 49.7106 53.28C50.2206 53.49 50.5506 52.74 50.0706 52.5L49.8306 52.41ZM63.3306 53.49C63.5406 53.97 63.7806 54.03 64.1706 54L65.0406 54.03C66.7806 54.03 68.5506 54 70.2906 53.73C70.8906 53.7 70.9206 52.86 70.3206 52.83L63.3606 52.59C63.1506 52.59 63.0006 52.8 63.0906 52.98L63.3306 53.49Z" fill="#171717"/>
<defs>
<linearGradient id="paint0_linear_92_313" x1="60" y1="120" x2="60" y2="-5.24537e-06" gradientUnits="userSpaceOnUse">
<stop stop-color="#2DAE58"/>
<stop offset="1" stop-color="#00FF55"/>
</linearGradient>
<clipPath id="clip0_92_313">
<rect width="91.8" height="91.8" rx="45.9" transform="matrix(-1 0 0 1 105.601 12.6)" fill="white"/>
</clipPath>
<clipPath id="clip1_92_313">
<rect width="91.8" height="103.2" rx="45.9" transform="matrix(-1 0 0 1 105.601 12.6)" fill="white"/>
</clipPath>
<clipPath id="clip2_92_313">
<rect width="91.8" height="91.8" rx="45.9" transform="matrix(-1 0 0 1 105.601 12.6)" fill="white"/>
</clipPath>
<clipPath id="clip3_92_313">
<rect width="91.8" height="103.2" rx="45.9" transform="matrix(-1 0 0 1 105.601 12.6)" fill="white"/>
</clipPath>
</defs>
</svg>
