<svg width="100" height="100" viewBox="0 0 100 100" fill="none" xmlns="http://www.w3.org/2000/svg">
<rect width="100" height="100" rx="50" fill="white"/>
<path d="M28.9754 80.1C29.1504 80.225 29.3504 80.35 29.5254 80.475C29.7254 80.6 29.9004 80.725 30.1004 80.825C30.2754 80.925 30.4254 81.025 30.6004 81.125C30.6254 81.15 30.6504 81.15 30.6754 81.175C31.2504 81.525 31.8504 81.85 32.4504 82.15C32.6254 82.25 32.8254 82.35 33.0004 82.425C33.0004 82.425 33.0254 82.45 33.0504 82.45L33.6504 82.75C34.0504 82.95 34.4754 83.125 34.8754 83.3C35.0754 83.4 35.3004 83.475 35.5004 83.55C35.7004 83.625 35.9254 83.725 36.1254 83.8C36.3254 83.875 36.5504 83.975 36.7504 84.05H36.7754C36.9754 84.125 37.2004 84.2 37.4004 84.275C37.8504 84.425 38.3254 84.575 38.7754 84.725C38.9254 84.775 39.1004 84.825 39.2504 84.875C39.7254 85.025 40.2004 85.15 40.6754 85.25C40.8504 85.3 41.0254 85.325 41.2254 85.375C41.6754 85.475 42.1504 85.575 42.6004 85.675C42.7004 85.7 42.7754 85.7 42.8754 85.725C43.0254 85.75 43.2004 85.775 43.3504 85.8C43.5754 85.825 43.7754 85.875 44.0004 85.9C44.1004 85.925 44.2004 85.925 44.3004 85.95C44.4254 85.975 44.5754 86 44.7254 86C45.1254 86.05 45.5504 86.1 45.9504 86.15C46.0754 86.175 46.2254 86.175 46.3504 86.2H46.3754C46.5504 86.225 46.7254 86.225 46.9004 86.25C47.0754 86.275 47.2504 86.275 47.4254 86.275C47.5254 86.275 47.6504 86.3 47.7504 86.3C47.9504 86.3 48.1254 86.325 48.3004 86.325C48.5504 86.325 48.7754 86.35 49.0254 86.35H50.2754C60.8254 86.2 70.3004 81.725 77.0754 74.625C77.0754 74.625 77.0754 74.6 77.1004 74.6C77.8504 73.925 77.2004 70.325 74.1754 68.05C70.3754 65.175 61.2754 63.375 61.2754 63.375C61.2754 63.375 57.7504 62.8 44.6754 65.525C37.0254 67.125 31.2004 69.45 27.9504 75.75C27.2754 77.05 26.6004 79.05 28.9754 80.1Z" fill="#F7F7F7"/>
<path d="M44.6007 65.25C39.8007 66.225 34.6757 67.275 30.7257 70.45C29.4007 71.525 28.5257 73.1 27.8007 74.625C27.4507 75.375 27.1007 76.15 26.8257 76.975C26.6757 77.525 26.4507 78.15 26.5757 78.8C26.6007 78.975 26.7507 79.2 26.8757 79.325C27.4507 79.9 28.0757 80.25 28.7007 80.7C32.3757 83.25 36.6007 85.05 40.9757 86C50.7257 88.125 61.2757 86.475 69.8507 81.35C72.7007 79.625 75.3257 77.525 77.5757 75.05C77.8257 74.75 77.8257 74.25 77.8257 73.925C77.8007 73.175 77.6007 72.45 77.3507 71.775C76.7507 70.225 75.9757 68.675 74.6507 67.6C73.7007 66.95 72.6757 66.4 71.6257 65.95C68.3257 64.55 64.8507 63.575 61.2757 63.175C60.9757 63.15 60.9257 63.575 61.2257 63.625C64.6507 64.325 68.0507 65.375 71.2257 66.8C72.3757 67.375 73.6007 67.875 74.5257 68.775C75.4007 69.725 76.0257 70.9 76.5257 72.1C76.8507 72.825 77.0757 73.975 76.9757 74.55C75.4007 76.425 73.5507 78.075 71.5507 79.5C60.6007 87.15 43.9757 87.65 32.3257 81.275C31.2757 80.7 30.2507 80.05 29.2757 79.375C28.8007 79.05 28.3007 78.775 27.9257 78.4C27.9007 78.375 27.9257 78.4 27.9257 78.425C27.9257 78.45 27.9507 78.475 27.9507 78.475C27.9257 78.175 28.0257 77.775 28.1507 77.375C28.6007 75.925 29.3257 74.4 30.1007 73.075C31.3257 71.1 33.4007 69.85 35.5007 68.85C36.9507 68.175 38.4757 67.65 40.0257 67.15C41.5757 66.65 43.1507 66.225 44.7257 65.85C45.1257 65.75 45.0007 65.175 44.6007 65.25Z" fill="#171717"/>
<g clip-path="url(#clip0_33_9)">
<path d="M20.7505 96.5H84.0005C84.0005 96.5 80.274 88.4301 78.6234 79.2294C77.4729 72.8558 76.6226 69.1292 73.3963 67.0732C71.1204 65.634 64.7179 63.5523 60.1661 62.8841C58.3153 62.6271 54.6389 62.3444 51.4626 62.6014C49.0617 62.9098 44.1097 64.349 42.209 64.8887C39.3578 65.7111 33.1804 68.1526 30.4543 70.7226C29.3789 71.7507 26.8279 76.8907 25.1772 84.3438C23.2765 92.8249 20.7505 96.5 20.7505 96.5Z" fill="#171717"/>
<path d="M20.1007 95.9C38.5757 96.075 65.6257 96.45 83.8757 96.375C84.4257 96.4 84.8257 95.775 84.5757 95.275C82.1757 89.975 80.3507 84.325 79.2257 78.6C78.3007 74.125 77.7257 68.475 73.2007 66.125C70.9757 65 68.6257 64.25 66.2507 63.55C62.0757 62.325 57.6507 61.725 53.3007 61.85C52.6257 61.875 51.9257 61.9 51.2257 61.95C49.7257 62.175 48.2507 62.55 46.8007 62.925C45.5007 63.25 44.1757 63.625 42.9007 64C42.7507 64.075 42.7007 64.375 42.6257 64.525C42.5257 64.7 42.4007 64.675 42.2257 64.6C42.1507 64.575 42.0757 64.525 42.0007 64.55C41.8257 64.575 41.5757 64.675 41.4007 64.725C37.5257 65.975 33.6257 67.45 30.3507 69.925C29.8757 70.275 29.5007 70.75 29.2007 71.25C28.6007 72.2 28.1007 73.175 27.6507 74.175C26.3007 77.15 25.3007 80.275 24.5507 83.45C23.5757 87.425 22.4257 91.425 20.3507 94.975L20.2507 95.125L20.2007 95.2C20.0507 95.325 20.0007 95.7 20.1007 95.9ZM21.2507 95.3C21.3757 95.45 21.3507 95.775 21.2507 95.9L21.2757 95.85L21.3257 95.75C22.4757 93.95 23.3257 91.95 24.0507 89.975C24.8007 87.95 25.3757 85.8 25.8757 83.7C26.6007 80.6 27.5507 77.55 28.8257 74.65C29.3757 73.425 29.9257 72.2 30.7507 71.175C31.2257 70.7 31.7757 70.3 32.3507 69.925C35.2257 68.075 38.4507 66.725 41.7007 65.675C41.8257 65.625 42.1257 65.55 42.2757 65.5C42.4257 65.45 42.4257 65.025 42.5257 64.925C42.7507 64.725 43.0007 65.275 43.2257 65.225C44.5007 64.875 45.8257 64.525 47.1257 64.225C48.6757 63.875 50.2007 63.475 51.7507 63.35C58.6007 62.9 65.5257 64.35 71.8257 67.075C74.8757 68.325 76.0257 71.15 76.7507 74.175C77.4007 76.725 77.7757 79.5 78.3757 82.075C79.5257 86.85 81.1257 91.45 83.1507 95.95L83.8507 94.85C66.1007 94.8 39.2507 95.075 21.2507 95.3Z" fill="#171717"/>
</g>
<path d="M42.2507 71.9C42.7757 74.475 46.1757 76.025 51.9007 73.7C57.8507 71.3 60.4257 65.575 61.0757 63.875C57.5507 57.275 60.0007 52.7 60.0007 52.7C51.8757 52 44.7757 61.5 44.7757 61.5L43.6757 66.2C43.5757 66.6 43.3757 66.95 43.0757 67.2C42.5507 68.125 41.9257 70.25 42.2507 71.9Z" fill="#F7F7F7"/>
<path d="M61.2003 63.95C60.7253 63.225 60.4253 62.375 60.2253 61.55C59.8503 59.825 59.7253 58.075 59.7003 56.325V55.675C59.7753 55.025 60.0003 54.35 60.2503 53.75C60.5753 52.95 59.4003 52.45 59.0253 53.25C58.9753 53.35 58.9753 53.525 58.9753 53.625C58.9003 57.025 58.7503 61.4 60.9003 64.225C61.0503 64.375 61.3503 64.15 61.2003 63.95ZM44.5006 61.45C44.1256 61.675 44.0006 61.975 43.9506 62.275C43.8006 62.875 43.8506 63.525 43.7006 64.15C43.5756 64.75 43.2006 65.325 43.1006 65.95C42.9756 66.6 42.6006 67.975 42.4506 68.65C42.4006 68.8 42.5006 68.975 42.6756 69C42.7756 69.025 42.8506 69 42.9256 68.95C43.2506 68.675 43.4006 68.4 43.6006 68.05C43.9256 67.45 44.1506 66.9 44.3506 66.225C44.5256 65.625 44.4506 64.975 44.6006 64.35C44.7256 63.75 45.0756 63.175 45.2006 62.55C45.2756 62.25 45.3006 61.925 45.0756 61.55C44.9256 61.4 44.6756 61.35 44.5006 61.45Z" fill="#171717"/>
<path d="M42.7003 68.05C47.4753 67.8 51.3753 66.3 55.1753 59.525C51.9753 62.35 48.2003 63.425 44.2253 63.925L43.7003 66.225C43.6003 66.625 43.0003 67.8 42.7003 68.05Z" fill="#171717"/>
<path d="M42.9005 67.125C42.0505 68.725 41.5505 70.725 42.0755 72.5C42.4755 73.75 43.6255 74.675 44.8755 75.025C47.7755 75.8 51.1255 74.575 53.7005 73.2C56.8755 71.425 59.2255 68.45 60.7255 65.2C60.8255 64.95 60.4755 64.75 60.3255 65C59.8005 66.05 59.2005 67.075 58.5255 68C57.8505 68.95 57.0755 69.825 56.2005 70.6C53.6505 72.9 50.2005 74.325 46.7505 74.325C43.2005 74.225 41.8505 72.35 42.6755 68.9C42.8005 68.35 43.0005 67.775 43.2755 67.3C43.4255 67.1 43.0505 66.875 42.9005 67.125Z" fill="#171717"/>
<path d="M33.2254 37.1C32.7754 39.2 33.1254 40.6 33.3254 46.4C35.6254 56 35.4504 61.325 36.7254 62.6C37.7254 63.6 43.7004 64.9 48.1254 63.775C50.3754 63.2 52.2754 61.9 53.8254 60.975C55.7754 59.8 57.2504 55.975 58.6504 53.65C59.7504 51.825 59.8754 54.225 61.3004 52.65C63.2754 50.5 65.6504 46.175 64.4754 38.525C62.5754 26.125 52.7504 24.675 45.4754 26.05C38.1754 27.425 34.4254 31.575 33.2254 37.1Z" fill="#F7F7F7"/>
<path d="M60.0754 54.85C60.9504 53.4 62.2004 52.2 63.0004 50.7C65.4254 46.15 65.9254 40.625 64.5254 35.675C61.6004 25.125 51.0004 23.575 41.8004 26.675C36.6504 28.425 33.0254 32.775 32.5004 38.25C32.4504 40 32.9004 41.625 32.9254 43.35C33.0504 47.9 34.4754 52.275 35.0254 56.65C35.1504 58.025 35.1504 59.475 35.3504 60.875C35.4004 61.175 35.4504 61.45 35.5504 61.775C35.7754 62.45 36.2754 62.925 36.8254 63.3C38.9004 64.575 41.2504 64.8 43.6004 64.925C48.5004 65.125 52.8004 63.7 55.7254 59.625C55.8254 59.475 55.6254 59.3 55.5004 59.45C52.2254 62.95 48.3004 64.075 43.6504 63.85C41.6754 63.75 37.4504 63.375 36.5754 61.45C36.1504 59.875 36.1504 58.225 35.9004 56.575C35.6254 54.625 34.8754 51.9 34.4254 49.975C33.9254 47.8 33.5004 45.6 33.4754 43.375C33.4504 42.25 33.4504 41.125 33.4504 40C33.4004 38.875 33.6254 37.9 33.9004 36.825C34.9004 32.55 37.9754 29 42.1254 27.425C46.2004 25.85 50.9254 25.45 55.1004 26.825C59.3504 28.175 62.2504 31.825 63.3504 36.075C63.9254 38.175 64.2254 40.375 64.3754 42.55C64.5004 44.75 64.2754 47 63.4004 49.05C62.7754 50.6 61.7504 51.95 60.5504 53.075L59.3754 54.3C58.8254 54.8 59.6754 55.45 60.0754 54.85Z" fill="#171717"/>
<path d="M57.1256 46.9C57.1256 46.9 57.9006 43.15 61.5506 43.6C64.7006 44 65.8006 51.55 58.6506 53.65" fill="#F7F7F7"/>
<path d="M58.9753 50.375C59.5503 50.05 59.9503 49.5 59.9753 48.825C59.9503 48.325 59.8753 47.75 60.0003 47.25C60.0753 46.775 60.5753 46.65 60.9503 46.675C61.3503 46.75 61.6003 47.25 61.6753 47.65C61.6753 47.675 61.7003 47.75 61.7003 47.775C61.7253 47.9 61.9253 47.9 61.9753 47.775C62.3003 46.8 61.5753 45.725 60.5253 45.85C59.0503 45.95 58.8503 47.5 59.1253 48.675C59.2753 49.175 59.0753 49.625 58.8003 50.05L58.7503 50.125C58.6253 50.275 58.8253 50.475 58.9753 50.375ZM38.9756 44.25C38.6006 46.025 37.9006 47.675 37.0256 49.225C36.2506 51.125 38.2506 52.925 40.0256 52.85C40.2256 52.85 40.2506 52.575 40.0756 52.525C38.9506 52.175 37.9256 51.425 37.7506 50.275C37.6756 49.925 37.7756 49.625 37.9506 49.325C38.7756 47.775 39.2756 46 39.1506 44.25C39.1506 44.125 38.9756 44.125 38.9756 44.25Z" fill="#171717"/>
<path d="M57.2505 46.925C57.8255 45.45 59.0755 44.05 60.7505 44.075C60.9005 44.05 61.1505 44.1 61.3005 44.1C61.7255 44.125 62.0755 44.275 62.4005 44.575C64.0005 46.175 63.7255 49 62.4255 50.775C61.9755 51.4 61.4005 51.95 60.7505 52.4C60.1005 52.85 59.3755 53.2 58.6005 53.5C58.4255 53.55 58.5005 53.825 58.6755 53.8C60.3505 53.45 61.9505 52.625 63.0505 51.25C64.7505 49.2 65.1005 45.775 63.0755 43.775C62.6255 43.375 62.0005 43.075 61.3755 43.075C61.1755 43.075 60.8755 43.025 60.6755 43.075C59.6255 43.125 58.6255 43.65 57.9755 44.475C57.4005 45.175 57.0755 46.025 56.9755 46.875C56.9755 47.025 57.2005 47.075 57.2505 46.925Z" fill="#171717"/>
<path d="M31.3254 31.15C29.5504 24.725 36.7504 20.7 38.6754 23.6C40.0754 25.7 45.4754 24.075 53.6754 23.925C61.8754 23.75 64.0754 28.1 64.1754 32.775C64.1754 32.775 67.7754 34.675 67.5504 41.375C67.3254 48.325 60.1754 53.925 59.3004 57.45C59.3004 57.45 59.2004 57.9 60.1504 53.075C65.6004 50.45 64.4504 43.975 61.5254 43.6C59.3004 43.325 58.1254 44.625 57.5754 45.675C57.3504 45.975 55.2254 48.575 55.1754 40.075C55.1504 34.275 49.5004 32.375 43.0754 34.725C39.7254 35.95 36.2004 36.85 33.7754 35.1C33.3754 36.25 32.9504 37.525 33.2754 39.075C32.3004 38.175 31.4754 36.85 31.2504 35.225C31.1004 34.25 31.3504 33.4 31.9004 32.65C31.6754 32.225 31.4754 31.7 31.3254 31.15Z" fill="#171717"/>
<path d="M47.1254 45.025V45.075L47.1504 45.775C47.1754 46.375 47.6754 46.825 48.2754 46.8C48.8754 46.775 49.3254 46.25 49.2754 45.675L49.2504 44.975C49.2504 44.85 49.2004 44.7 49.1504 44.6L47.1504 44.7C47.1504 44.8 47.1254 44.9 47.1254 45.025ZM36.6754 45.575L36.7004 46.225C36.7254 46.775 37.2004 47.2 37.7504 47.175C38.3004 47.15 38.7254 46.675 38.7004 46.125L38.6754 45.475C38.6754 45.35 38.6503 45.225 38.6003 45.125L36.7254 45.2C36.7004 45.325 36.6754 45.45 36.6754 45.575ZM44.6254 41.6C44.0754 41.675 43.6503 41.1 43.8503 40.55C43.9503 40.25 44.1254 39.975 44.4004 39.8C45.2504 39.275 48.4253 39.225 50.1003 40.425C51.6003 41.525 47.1254 41.25 44.6254 41.6ZM37.7004 41.875C38.1504 41.875 38.4254 41.3 38.2004 40.825C38.0754 40.575 37.9004 40.35 37.6504 40.225C36.8754 39.85 34.8004 40.075 33.8754 41.35C33.0504 42.475 35.6254 41.85 37.7004 41.875Z" fill="#171717"/>
<path d="M45.5259 45.025L49.6509 44.95C50.1509 44.925 50.1259 44.175 49.6259 44.2L45.5009 44.5C45.1509 44.525 45.1759 45.025 45.5259 45.025ZM35.6257 45.45L38.6757 45.5C39.1757 45.5 39.2007 44.775 38.7007 44.75H38.6507L35.6007 45.075C35.3757 45.1 35.4007 45.425 35.6257 45.45Z" fill="#171717"/>
<path d="M41.4506 55.25C41.4256 56.075 42.6506 58.175 45.0006 57.2C47.2756 56.275 47.9506 51.925 44.7006 54C43.0506 55.1 42.0006 55.275 41.4506 55.25Z" fill="#F7F7F7"/>
<path d="M40.9253 55.275C41.6003 55.5 42.2503 55.3 42.8753 55.075C43.8003 54.75 44.5503 54.15 45.4253 53.725C46.6253 53.15 47.1003 53.925 46.7753 55.05C46.4503 56.25 45.4003 57.3 44.1003 57.35C42.9503 57.475 41.7253 56.425 41.8253 55.25C41.9253 54.75 41.2003 54.6 41.0753 55.075C41.1003 55.925 41.6253 56.525 42.1753 57.025C43.2753 57.925 44.9503 57.725 46.0503 56.9C46.9003 56.225 47.6003 55.15 47.4503 54C47.4003 53.5 46.9253 52.925 46.4003 52.9C45.1753 52.8 44.4503 53.625 43.5003 54.175C42.7503 54.6 41.9003 55.125 41.0253 55.05C40.8753 55 40.7753 55.2 40.9253 55.275Z" fill="#171717"/>
<path d="M46.7259 54.35C46.3259 54.925 45.7009 55.225 45.0509 55.375C44.9009 55.425 44.7759 55.425 44.6509 55.425C44.4259 55.425 44.2009 55.6 44.0759 55.725C43.4759 56.2 42.6509 56.275 41.9009 56.3C41.7259 56.3 41.7259 56.6 41.9009 56.575C42.7009 56.525 43.5509 56.45 44.3009 56.075C44.4509 56.025 44.5259 55.975 44.6509 55.975C45.1259 56.025 45.5009 55.725 45.8509 55.525C46.2509 55.3 46.6509 55.075 47.1259 54.975C47.3509 54.925 47.4759 54.725 47.4509 54.5C47.4009 54.15 46.9009 54.05 46.7259 54.35Z" fill="#171717"/>
<path d="M36.7505 55.5C35.3755 54 36.7255 55.4763 37.0505 53.5013C37.1755 52.7513 37.6255 51.5013 38.3255 52.0513C38.6005 52.2763 40.0255 52.7263 40.3005 52.7513C41.1005 52.8263 41.7005 52.7262 42.2755 52.2762C42.9255 51.7512 42.9255 51.5263 43.0755 51.4763C45.7005 50.6013 49.0005 49.7263 50.0755 53.2513C51.2505 55.875 50.9505 56.1263 50.0755 53.2513C51.3255 51.1263 55.9505 49.9763 56.1255 49.1263C56.5505 47.0263 57.1505 46.0013 57.5005 46.3013C57.5005 46.9763 57.2755 54.9513 57.2505 55.3763C57.0755 57.5763 56.8005 58.2762 55.8005 59.7012C54.8005 61.1262 51.3005 65.0012 46.7505 65.3262C42.1755 65.6512 39.6505 65.2762 37.1005 62.3512C34.8005 59.7012 34.7255 54.2012 34.7255 54.2012C37.2505 54.75 36.1505 54.675 36.7505 55.5ZM47.5255 53.8262C46.2255 52.4012 44.3255 54.0512 42.2755 54.2012C40.2505 54.3512 39.4255 53.0762 39.2755 55.3262C39.2255 55.8762 39.1505 56.8013 39.1755 57.4263V57.5013C39.2505 58.2013 39.4755 58.9762 40.1755 59.4012C41.6505 60.3262 44.0255 60.1013 45.5505 59.8013C47.6755 59.3763 48.1255 58.4012 48.2255 57.9512C48.3755 56.0262 48.0505 54.4012 47.5255 53.8262Z" fill="#171717"/>
<path d="M44.2503 49.9C45.4003 49.925 48.9503 49.95 50.0503 49.975C51.9503 50 53.3753 48.35 53.2003 46.475C53.1753 45.85 53.2003 44.975 53.1753 44.35C53.1253 42.725 51.6753 41.35 50.0503 41.4L45.8253 41.45C45.5003 41.45 44.5753 41.475 44.2503 41.475C42.9003 41.45 41.6253 42.45 41.3253 43.775C41.2253 44.15 41.2503 44.55 41.2503 44.875V47C41.2753 48.575 42.6753 49.925 44.2503 49.9ZM44.2503 49.35C42.9503 49.4 41.7503 48.275 41.7253 46.975C41.7003 46.3 41.7253 45.575 41.7253 44.875C41.5753 43.35 42.7253 41.95 44.2753 42C45.3503 42.025 48.9503 42.05 50.0753 42.075C51.4253 42.075 52.5753 43.3 52.4753 44.65V45.45C52.4503 46 52.5253 46.95 52.4003 47.45C52.1503 48.5 51.1503 49.3 50.0753 49.3H49.5503C48.8253 49.3 45.0003 49.35 44.2503 49.35ZM34.1755 42.125L36.1506 42.15C36.7006 42.175 37.3506 42.075 37.8256 42.4C38.2756 42.7 38.4756 43.25 38.4506 43.775C38.4506 44.425 38.4505 45.1 38.4755 45.75L38.5005 45.65C38.1505 46.875 37.6756 48.05 36.9506 49.075L37.2006 48.925C37.0006 48.975 36.6506 48.975 36.4506 48.975C35.7006 49 34.8256 49.05 34.0756 49.05C33.3756 49.05 32.7005 48.525 32.5505 47.825C32.5005 47.625 32.5005 47.275 32.5005 47.075C32.5005 46 32.4756 44.95 32.5256 43.875C32.4756 42.925 33.2005 42.075 34.1755 42.125ZM34.1755 41.375C32.8505 41.375 31.9256 42.65 32.1506 43.9C32.2006 44.975 32.1755 46.025 32.1755 47.1C32.0505 48.35 32.8005 49.475 34.1005 49.575C34.6505 49.6 35.1756 49.6 35.7006 49.625C35.9756 49.625 36.6506 49.675 36.9006 49.675C37.0256 49.7 37.2255 49.675 37.3505 49.675C37.4505 49.675 37.5505 49.6 37.6005 49.525C38.3755 48.375 38.9255 47.1 39.2505 45.775C39.2505 44.925 39.3255 44.075 39.2505 43.225C39.1005 42.225 38.2005 41.375 37.1755 41.35C36.4755 41.325 34.8755 41.375 34.1755 41.375Z" fill="#171717"/>
<path d="M41.5256 43.675C40.8506 43.375 40.1006 43.25 39.3506 43.3C39.1006 43.325 38.8506 43.4 38.6256 43.6L38.3006 43.875C37.9756 44.15 38.3756 44.625 38.7006 44.35C39.1006 44 39.5756 44.05 40.0506 44.075C40.5256 44.125 40.9756 44.225 41.4256 44.4C41.8506 44.575 42.1256 43.95 41.7256 43.75L41.5256 43.675ZM52.7756 44.575C52.9506 44.975 53.1506 45.025 53.4756 45L54.2006 45.025C55.6506 45.025 57.1256 45 58.5756 44.775C59.0756 44.75 59.1006 44.05 58.6006 44.025L52.8006 43.825C52.6256 43.825 52.5006 44 52.5756 44.15L52.7756 44.575Z" fill="#171717"/>
<rect width="100" height="100" rx="50" fill="url(#paint0_linear_33_9)"/>
<path d="M28.9754 80.1C29.1504 80.225 29.3504 80.35 29.5254 80.475C29.7254 80.6 29.9004 80.725 30.1004 80.825C30.2754 80.925 30.4254 81.025 30.6004 81.125C30.6254 81.15 30.6504 81.15 30.6754 81.175C31.2504 81.525 31.8504 81.85 32.4504 82.15C32.6254 82.25 32.8254 82.35 33.0004 82.425C33.0004 82.425 33.0254 82.45 33.0504 82.45L33.6504 82.75C34.0504 82.95 34.4754 83.125 34.8754 83.3C35.0754 83.4 35.3004 83.475 35.5004 83.55C35.7004 83.625 35.9254 83.725 36.1254 83.8C36.3254 83.875 36.5504 83.975 36.7504 84.05H36.7754C36.9754 84.125 37.2004 84.2 37.4004 84.275C37.8504 84.425 38.3254 84.575 38.7754 84.725C38.9254 84.775 39.1004 84.825 39.2504 84.875C39.7254 85.025 40.2004 85.15 40.6754 85.25C40.8504 85.3 41.0254 85.325 41.2254 85.375C41.6754 85.475 42.1504 85.575 42.6004 85.675C42.7004 85.7 42.7754 85.7 42.8754 85.725C43.0254 85.75 43.2004 85.775 43.3504 85.8C43.5754 85.825 43.7754 85.875 44.0004 85.9C44.1004 85.925 44.2004 85.925 44.3004 85.95C44.4254 85.975 44.5754 86 44.7254 86C45.1254 86.05 45.5504 86.1 45.9504 86.15C46.0754 86.175 46.2254 86.175 46.3504 86.2H46.3754C46.5504 86.225 46.7254 86.225 46.9004 86.25C47.0754 86.275 47.2504 86.275 47.4254 86.275C47.5254 86.275 47.6504 86.3 47.7504 86.3C47.9504 86.3 48.1254 86.325 48.3004 86.325C48.5504 86.325 48.7754 86.35 49.0254 86.35H50.2754C60.8254 86.2 70.3004 81.725 77.0754 74.625C77.0754 74.625 77.0754 74.6 77.1004 74.6C77.8504 73.925 77.2004 70.325 74.1754 68.05C70.3754 65.175 61.2754 63.375 61.2754 63.375C61.2754 63.375 57.7504 62.8 44.6754 65.525C37.0254 67.125 31.2004 69.45 27.9504 75.75C27.2754 77.05 26.6004 79.05 28.9754 80.1Z" fill="#F7F7F7"/>
<path d="M44.6007 65.25C39.8007 66.225 34.6757 67.275 30.7257 70.45C29.4007 71.525 28.5257 73.1 27.8007 74.625C27.4507 75.375 27.1007 76.15 26.8257 76.975C26.6757 77.525 26.4507 78.15 26.5757 78.8C26.6007 78.975 26.7507 79.2 26.8757 79.325C27.4507 79.9 28.0757 80.25 28.7007 80.7C32.3757 83.25 36.6007 85.05 40.9757 86C50.7257 88.125 61.2757 86.475 69.8507 81.35C72.7007 79.625 75.3257 77.525 77.5757 75.05C77.8257 74.75 77.8257 74.25 77.8257 73.925C77.8007 73.175 77.6007 72.45 77.3507 71.775C76.7507 70.225 75.9757 68.675 74.6507 67.6C73.7007 66.95 72.6757 66.4 71.6257 65.95C68.3257 64.55 64.8507 63.575 61.2757 63.175C60.9757 63.15 60.9257 63.575 61.2257 63.625C64.6507 64.325 68.0507 65.375 71.2257 66.8C72.3757 67.375 73.6007 67.875 74.5257 68.775C75.4007 69.725 76.0257 70.9 76.5257 72.1C76.8507 72.825 77.0757 73.975 76.9757 74.55C75.4007 76.425 73.5507 78.075 71.5507 79.5C60.6007 87.15 43.9757 87.65 32.3257 81.275C31.2757 80.7 30.2507 80.05 29.2757 79.375C28.8007 79.05 28.3007 78.775 27.9257 78.4C27.9007 78.375 27.9257 78.4 27.9257 78.425C27.9257 78.45 27.9507 78.475 27.9507 78.475C27.9257 78.175 28.0257 77.775 28.1507 77.375C28.6007 75.925 29.3257 74.4 30.1007 73.075C31.3257 71.1 33.4007 69.85 35.5007 68.85C36.9507 68.175 38.4757 67.65 40.0257 67.15C41.5757 66.65 43.1507 66.225 44.7257 65.85C45.1257 65.75 45.0007 65.175 44.6007 65.25Z" fill="#171717"/>
<g clip-path="url(#clip1_33_9)">
<path d="M20.7505 96.5H84.0005C84.0005 96.5 80.274 88.4301 78.6234 79.2294C77.4729 72.8558 76.6226 69.1292 73.3963 67.0732C71.1204 65.634 64.7179 63.5523 60.1661 62.8841C58.3153 62.6271 54.6389 62.3444 51.4626 62.6014C49.0617 62.9098 44.1097 64.349 42.209 64.8887C39.3578 65.7111 33.1804 68.1526 30.4543 70.7226C29.3789 71.7507 26.8279 76.8907 25.1772 84.3438C23.2765 92.8249 20.7505 96.5 20.7505 96.5Z" fill="#171717"/>
<path d="M20.1007 95.9C38.5757 96.075 65.6257 96.45 83.8757 96.375C84.4257 96.4 84.8257 95.775 84.5757 95.275C82.1757 89.975 80.3507 84.325 79.2257 78.6C78.3007 74.125 77.7257 68.475 73.2007 66.125C70.9757 65 68.6257 64.25 66.2507 63.55C62.0757 62.325 57.6507 61.725 53.3007 61.85C52.6257 61.875 51.9257 61.9 51.2257 61.95C49.7257 62.175 48.2507 62.55 46.8007 62.925C45.5007 63.25 44.1757 63.625 42.9007 64C42.7507 64.075 42.7007 64.375 42.6257 64.525C42.5257 64.7 42.4007 64.675 42.2257 64.6C42.1507 64.575 42.0757 64.525 42.0007 64.55C41.8257 64.575 41.5757 64.675 41.4007 64.725C37.5257 65.975 33.6257 67.45 30.3507 69.925C29.8757 70.275 29.5007 70.75 29.2007 71.25C28.6007 72.2 28.1007 73.175 27.6507 74.175C26.3007 77.15 25.3007 80.275 24.5507 83.45C23.5757 87.425 22.4257 91.425 20.3507 94.975L20.2507 95.125L20.2007 95.2C20.0507 95.325 20.0007 95.7 20.1007 95.9ZM21.2507 95.3C21.3757 95.45 21.3507 95.775 21.2507 95.9L21.2757 95.85L21.3257 95.75C22.4757 93.95 23.3257 91.95 24.0507 89.975C24.8007 87.95 25.3757 85.8 25.8757 83.7C26.6007 80.6 27.5507 77.55 28.8257 74.65C29.3757 73.425 29.9257 72.2 30.7507 71.175C31.2257 70.7 31.7757 70.3 32.3507 69.925C35.2257 68.075 38.4507 66.725 41.7007 65.675C41.8257 65.625 42.1257 65.55 42.2757 65.5C42.4257 65.45 42.4257 65.025 42.5257 64.925C42.7507 64.725 43.0007 65.275 43.2257 65.225C44.5007 64.875 45.8257 64.525 47.1257 64.225C48.6757 63.875 50.2007 63.475 51.7507 63.35C58.6007 62.9 65.5257 64.35 71.8257 67.075C74.8757 68.325 76.0257 71.15 76.7507 74.175C77.4007 76.725 77.7757 79.5 78.3757 82.075C79.5257 86.85 81.1257 91.45 83.1507 95.95L83.8507 94.85C66.1007 94.8 39.2507 95.075 21.2507 95.3Z" fill="#171717"/>
</g>
<path d="M42.2507 71.9C42.7757 74.475 46.1757 76.025 51.9007 73.7C57.8507 71.3 60.4257 65.575 61.0757 63.875C57.5507 57.275 60.0007 52.7 60.0007 52.7C51.8757 52 44.7757 61.5 44.7757 61.5L43.6757 66.2C43.5757 66.6 43.3757 66.95 43.0757 67.2C42.5507 68.125 41.9257 70.25 42.2507 71.9Z" fill="#F7F7F7"/>
<path d="M61.2003 63.95C60.7253 63.225 60.4253 62.375 60.2253 61.55C59.8503 59.825 59.7253 58.075 59.7003 56.325V55.675C59.7753 55.025 60.0003 54.35 60.2503 53.75C60.5753 52.95 59.4003 52.45 59.0253 53.25C58.9753 53.35 58.9753 53.525 58.9753 53.625C58.9003 57.025 58.7503 61.4 60.9003 64.225C61.0503 64.375 61.3503 64.15 61.2003 63.95ZM44.5006 61.45C44.1256 61.675 44.0006 61.975 43.9506 62.275C43.8006 62.875 43.8506 63.525 43.7006 64.15C43.5756 64.75 43.2006 65.325 43.1006 65.95C42.9756 66.6 42.6006 67.975 42.4506 68.65C42.4006 68.8 42.5006 68.975 42.6756 69C42.7756 69.025 42.8506 69 42.9256 68.95C43.2506 68.675 43.4006 68.4 43.6006 68.05C43.9256 67.45 44.1506 66.9 44.3506 66.225C44.5256 65.625 44.4506 64.975 44.6006 64.35C44.7256 63.75 45.0756 63.175 45.2006 62.55C45.2756 62.25 45.3006 61.925 45.0756 61.55C44.9256 61.4 44.6756 61.35 44.5006 61.45Z" fill="#171717"/>
<path d="M42.7003 68.05C47.4753 67.8 51.3753 66.3 55.1753 59.525C51.9753 62.35 48.2003 63.425 44.2253 63.925L43.7003 66.225C43.6003 66.625 43.0003 67.8 42.7003 68.05Z" fill="#171717"/>
<path d="M42.9005 67.125C42.0505 68.725 41.5505 70.725 42.0755 72.5C42.4755 73.75 43.6255 74.675 44.8755 75.025C47.7755 75.8 51.1255 74.575 53.7005 73.2C56.8755 71.425 59.2255 68.45 60.7255 65.2C60.8255 64.95 60.4755 64.75 60.3255 65C59.8005 66.05 59.2005 67.075 58.5255 68C57.8505 68.95 57.0755 69.825 56.2005 70.6C53.6505 72.9 50.2005 74.325 46.7505 74.325C43.2005 74.225 41.8505 72.35 42.6755 68.9C42.8005 68.35 43.0005 67.775 43.2755 67.3C43.4255 67.1 43.0505 66.875 42.9005 67.125Z" fill="#171717"/>
<path d="M33.2254 37.1C32.7754 39.2 33.1254 40.6 33.3254 46.4C35.6254 56 35.4504 61.325 36.7254 62.6C37.7254 63.6 43.7004 64.9 48.1254 63.775C50.3754 63.2 52.2754 61.9 53.8254 60.975C55.7754 59.8 57.2504 55.975 58.6504 53.65C59.7504 51.825 59.8754 54.225 61.3004 52.65C63.2754 50.5 65.6504 46.175 64.4754 38.525C62.5754 26.125 52.7504 24.675 45.4754 26.05C38.1754 27.425 34.4254 31.575 33.2254 37.1Z" fill="#F7F7F7"/>
<path d="M60.0754 54.85C60.9504 53.4 62.2004 52.2 63.0004 50.7C65.4254 46.15 65.9254 40.625 64.5254 35.675C61.6004 25.125 51.0004 23.575 41.8004 26.675C36.6504 28.425 33.0254 32.775 32.5004 38.25C32.4504 40 32.9004 41.625 32.9254 43.35C33.0504 47.9 34.4754 52.275 35.0254 56.65C35.1504 58.025 35.1504 59.475 35.3504 60.875C35.4004 61.175 35.4504 61.45 35.5504 61.775C35.7754 62.45 36.2754 62.925 36.8254 63.3C38.9004 64.575 41.2504 64.8 43.6004 64.925C48.5004 65.125 52.8004 63.7 55.7254 59.625C55.8254 59.475 55.6254 59.3 55.5004 59.45C52.2254 62.95 48.3004 64.075 43.6504 63.85C41.6754 63.75 37.4504 63.375 36.5754 61.45C36.1504 59.875 36.1504 58.225 35.9004 56.575C35.6254 54.625 34.8754 51.9 34.4254 49.975C33.9254 47.8 33.5004 45.6 33.4754 43.375C33.4504 42.25 33.4504 41.125 33.4504 40C33.4004 38.875 33.6254 37.9 33.9004 36.825C34.9004 32.55 37.9754 29 42.1254 27.425C46.2004 25.85 50.9254 25.45 55.1004 26.825C59.3504 28.175 62.2504 31.825 63.3504 36.075C63.9254 38.175 64.2254 40.375 64.3754 42.55C64.5004 44.75 64.2754 47 63.4004 49.05C62.7754 50.6 61.7504 51.95 60.5504 53.075L59.3754 54.3C58.8254 54.8 59.6754 55.45 60.0754 54.85Z" fill="#171717"/>
<path d="M57.1256 46.9C57.1256 46.9 57.9006 43.15 61.5506 43.6C64.7006 44 65.8006 51.55 58.6506 53.65" fill="#F7F7F7"/>
<path d="M58.9753 50.375C59.5503 50.05 59.9503 49.5 59.9753 48.825C59.9503 48.325 59.8753 47.75 60.0003 47.25C60.0753 46.775 60.5753 46.65 60.9503 46.675C61.3503 46.75 61.6003 47.25 61.6753 47.65C61.6753 47.675 61.7003 47.75 61.7003 47.775C61.7253 47.9 61.9253 47.9 61.9753 47.775C62.3003 46.8 61.5753 45.725 60.5253 45.85C59.0503 45.95 58.8503 47.5 59.1253 48.675C59.2753 49.175 59.0753 49.625 58.8003 50.05L58.7503 50.125C58.6253 50.275 58.8253 50.475 58.9753 50.375ZM38.9756 44.25C38.6006 46.025 37.9006 47.675 37.0256 49.225C36.2506 51.125 38.2506 52.925 40.0256 52.85C40.2256 52.85 40.2506 52.575 40.0756 52.525C38.9506 52.175 37.9256 51.425 37.7506 50.275C37.6756 49.925 37.7756 49.625 37.9506 49.325C38.7756 47.775 39.2756 46 39.1506 44.25C39.1506 44.125 38.9756 44.125 38.9756 44.25Z" fill="#171717"/>
<path d="M57.2505 46.925C57.8255 45.45 59.0755 44.05 60.7505 44.075C60.9005 44.05 61.1505 44.1 61.3005 44.1C61.7255 44.125 62.0755 44.275 62.4005 44.575C64.0005 46.175 63.7255 49 62.4255 50.775C61.9755 51.4 61.4005 51.95 60.7505 52.4C60.1005 52.85 59.3755 53.2 58.6005 53.5C58.4255 53.55 58.5005 53.825 58.6755 53.8C60.3505 53.45 61.9505 52.625 63.0505 51.25C64.7505 49.2 65.1005 45.775 63.0755 43.775C62.6255 43.375 62.0005 43.075 61.3755 43.075C61.1755 43.075 60.8755 43.025 60.6755 43.075C59.6255 43.125 58.6255 43.65 57.9755 44.475C57.4005 45.175 57.0755 46.025 56.9755 46.875C56.9755 47.025 57.2005 47.075 57.2505 46.925Z" fill="#171717"/>
<path d="M31.3254 31.15C29.5504 24.725 36.7504 20.7 38.6754 23.6C40.0754 25.7 45.4754 24.075 53.6754 23.925C61.8754 23.75 64.0754 28.1 64.1754 32.775C64.1754 32.775 67.7754 34.675 67.5504 41.375C67.3254 48.325 60.1754 53.925 59.3004 57.45C59.3004 57.45 59.2004 57.9 60.1504 53.075C65.6004 50.45 64.4504 43.975 61.5254 43.6C59.3004 43.325 58.1254 44.625 57.5754 45.675C57.3504 45.975 55.2254 48.575 55.1754 40.075C55.1504 34.275 49.5004 32.375 43.0754 34.725C39.7254 35.95 36.2004 36.85 33.7754 35.1C33.3754 36.25 32.9504 37.525 33.2754 39.075C32.3004 38.175 31.4754 36.85 31.2504 35.225C31.1004 34.25 31.3504 33.4 31.9004 32.65C31.6754 32.225 31.4754 31.7 31.3254 31.15Z" fill="#171717"/>
<path d="M47.1254 45.025V45.075L47.1504 45.775C47.1754 46.375 47.6754 46.825 48.2754 46.8C48.8754 46.775 49.3254 46.25 49.2754 45.675L49.2504 44.975C49.2504 44.85 49.2004 44.7 49.1504 44.6L47.1504 44.7C47.1504 44.8 47.1254 44.9 47.1254 45.025ZM36.6754 45.575L36.7004 46.225C36.7254 46.775 37.2004 47.2 37.7504 47.175C38.3004 47.15 38.7254 46.675 38.7004 46.125L38.6754 45.475C38.6754 45.35 38.6503 45.225 38.6003 45.125L36.7254 45.2C36.7004 45.325 36.6754 45.45 36.6754 45.575ZM44.6254 41.6C44.0754 41.675 43.6503 41.1 43.8503 40.55C43.9503 40.25 44.1254 39.975 44.4004 39.8C45.2504 39.275 48.4253 39.225 50.1003 40.425C51.6003 41.525 47.1254 41.25 44.6254 41.6ZM37.7004 41.875C38.1504 41.875 38.4254 41.3 38.2004 40.825C38.0754 40.575 37.9004 40.35 37.6504 40.225C36.8754 39.85 34.8004 40.075 33.8754 41.35C33.0504 42.475 35.6254 41.85 37.7004 41.875Z" fill="#171717"/>
<path d="M45.5259 45.025L49.6509 44.95C50.1509 44.925 50.1259 44.175 49.6259 44.2L45.5009 44.5C45.1509 44.525 45.1759 45.025 45.5259 45.025ZM35.6257 45.45L38.6757 45.5C39.1757 45.5 39.2007 44.775 38.7007 44.75H38.6507L35.6007 45.075C35.3757 45.1 35.4007 45.425 35.6257 45.45Z" fill="#171717"/>
<path d="M41.4506 55.25C41.4256 56.075 42.6506 58.175 45.0006 57.2C47.2756 56.275 47.9506 51.925 44.7006 54C43.0506 55.1 42.0006 55.275 41.4506 55.25Z" fill="#F7F7F7"/>
<path d="M40.9253 55.275C41.6003 55.5 42.2503 55.3 42.8753 55.075C43.8003 54.75 44.5503 54.15 45.4253 53.725C46.6253 53.15 47.1003 53.925 46.7753 55.05C46.4503 56.25 45.4003 57.3 44.1003 57.35C42.9503 57.475 41.7253 56.425 41.8253 55.25C41.9253 54.75 41.2003 54.6 41.0753 55.075C41.1003 55.925 41.6253 56.525 42.1753 57.025C43.2753 57.925 44.9503 57.725 46.0503 56.9C46.9003 56.225 47.6003 55.15 47.4503 54C47.4003 53.5 46.9253 52.925 46.4003 52.9C45.1753 52.8 44.4503 53.625 43.5003 54.175C42.7503 54.6 41.9003 55.125 41.0253 55.05C40.8753 55 40.7753 55.2 40.9253 55.275Z" fill="#171717"/>
<path d="M46.7259 54.35C46.3259 54.925 45.7009 55.225 45.0509 55.375C44.9009 55.425 44.7759 55.425 44.6509 55.425C44.4259 55.425 44.2009 55.6 44.0759 55.725C43.4759 56.2 42.6509 56.275 41.9009 56.3C41.7259 56.3 41.7259 56.6 41.9009 56.575C42.7009 56.525 43.5509 56.45 44.3009 56.075C44.4509 56.025 44.5259 55.975 44.6509 55.975C45.1259 56.025 45.5009 55.725 45.8509 55.525C46.2509 55.3 46.6509 55.075 47.1259 54.975C47.3509 54.925 47.4759 54.725 47.4509 54.5C47.4009 54.15 46.9009 54.05 46.7259 54.35Z" fill="#171717"/>
<path d="M36.7505 55.5C35.3755 54 36.7255 55.4763 37.0505 53.5013C37.1755 52.7513 37.6255 51.5013 38.3255 52.0513C38.6005 52.2763 40.0255 52.7263 40.3005 52.7513C41.1005 52.8263 41.7005 52.7262 42.2755 52.2762C42.9255 51.7512 42.9255 51.5263 43.0755 51.4763C45.7005 50.6013 49.0005 49.7263 50.0755 53.2513C51.2505 55.875 50.9505 56.1263 50.0755 53.2513C51.3255 51.1263 55.9505 49.9763 56.1255 49.1263C56.5505 47.0263 57.1505 46.0013 57.5005 46.3013C57.5005 46.9763 57.2755 54.9513 57.2505 55.3763C57.0755 57.5763 56.8005 58.2762 55.8005 59.7012C54.8005 61.1262 51.3005 65.0012 46.7505 65.3262C42.1755 65.6512 39.6505 65.2762 37.1005 62.3512C34.8005 59.7012 34.7255 54.2012 34.7255 54.2012C37.2505 54.75 36.1505 54.675 36.7505 55.5ZM47.5255 53.8262C46.2255 52.4012 44.3255 54.0512 42.2755 54.2012C40.2505 54.3512 39.4255 53.0762 39.2755 55.3262C39.2255 55.8762 39.1505 56.8013 39.1755 57.4263V57.5013C39.2505 58.2013 39.4755 58.9762 40.1755 59.4012C41.6505 60.3262 44.0255 60.1013 45.5505 59.8013C47.6755 59.3763 48.1255 58.4012 48.2255 57.9512C48.3755 56.0262 48.0505 54.4012 47.5255 53.8262Z" fill="#171717"/>
<path d="M44.2503 49.9C45.4003 49.925 48.9503 49.95 50.0503 49.975C51.9503 50 53.3753 48.35 53.2003 46.475C53.1753 45.85 53.2003 44.975 53.1753 44.35C53.1253 42.725 51.6753 41.35 50.0503 41.4L45.8253 41.45C45.5003 41.45 44.5753 41.475 44.2503 41.475C42.9003 41.45 41.6253 42.45 41.3253 43.775C41.2253 44.15 41.2503 44.55 41.2503 44.875V47C41.2753 48.575 42.6753 49.925 44.2503 49.9ZM44.2503 49.35C42.9503 49.4 41.7503 48.275 41.7253 46.975C41.7003 46.3 41.7253 45.575 41.7253 44.875C41.5753 43.35 42.7253 41.95 44.2753 42C45.3503 42.025 48.9503 42.05 50.0753 42.075C51.4253 42.075 52.5753 43.3 52.4753 44.65V45.45C52.4503 46 52.5253 46.95 52.4003 47.45C52.1503 48.5 51.1503 49.3 50.0753 49.3H49.5503C48.8253 49.3 45.0003 49.35 44.2503 49.35ZM34.1755 42.125L36.1506 42.15C36.7006 42.175 37.3506 42.075 37.8256 42.4C38.2756 42.7 38.4756 43.25 38.4506 43.775C38.4506 44.425 38.4505 45.1 38.4755 45.75L38.5005 45.65C38.1505 46.875 37.6756 48.05 36.9506 49.075L37.2006 48.925C37.0006 48.975 36.6506 48.975 36.4506 48.975C35.7006 49 34.8256 49.05 34.0756 49.05C33.3756 49.05 32.7005 48.525 32.5505 47.825C32.5005 47.625 32.5005 47.275 32.5005 47.075C32.5005 46 32.4756 44.95 32.5256 43.875C32.4756 42.925 33.2005 42.075 34.1755 42.125ZM34.1755 41.375C32.8505 41.375 31.9256 42.65 32.1506 43.9C32.2006 44.975 32.1755 46.025 32.1755 47.1C32.0505 48.35 32.8005 49.475 34.1005 49.575C34.6505 49.6 35.1756 49.6 35.7006 49.625C35.9756 49.625 36.6506 49.675 36.9006 49.675C37.0256 49.7 37.2255 49.675 37.3505 49.675C37.4505 49.675 37.5505 49.6 37.6005 49.525C38.3755 48.375 38.9255 47.1 39.2505 45.775C39.2505 44.925 39.3255 44.075 39.2505 43.225C39.1005 42.225 38.2005 41.375 37.1755 41.35C36.4755 41.325 34.8755 41.375 34.1755 41.375Z" fill="#171717"/>
<path d="M41.5256 43.675C40.8506 43.375 40.1006 43.25 39.3506 43.3C39.1006 43.325 38.8506 43.4 38.6256 43.6L38.3006 43.875C37.9756 44.15 38.3756 44.625 38.7006 44.35C39.1006 44 39.5756 44.05 40.0506 44.075C40.5256 44.125 40.9756 44.225 41.4256 44.4C41.8506 44.575 42.1256 43.95 41.7256 43.75L41.5256 43.675ZM52.7756 44.575C52.9506 44.975 53.1506 45.025 53.4756 45L54.2006 45.025C55.6506 45.025 57.1256 45 58.5756 44.775C59.0756 44.75 59.1006 44.05 58.6006 44.025L52.8006 43.825C52.6256 43.825 52.5006 44 52.5756 44.15L52.7756 44.575Z" fill="#171717"/>
<defs>
<linearGradient id="paint0_linear_33_9" x1="50" y1="0" x2="50" y2="100" gradientUnits="userSpaceOnUse">
<stop stop-color="#FFD900"/>
<stop offset="1" stop-color="#FF9E00"/>
</linearGradient>
<clipPath id="clip0_33_9">
<rect width="76.5" height="86" rx="38.25" transform="matrix(-1 0 0 1 88.0005 10.5)" fill="white"/>
</clipPath>
<clipPath id="clip1_33_9">
<rect width="76.5" height="86" rx="38.25" transform="matrix(-1 0 0 1 88.0005 10.5)" fill="white"/>
</clipPath>
</defs>
</svg>
