<svg width="24" height="24" viewBox="0 0 24 24" fill="none" xmlns="http://www.w3.org/2000/svg">
<path d="M5.71429 7.42857C6.66106 7.42857 7.42857 6.78898 7.42857 6C7.42857 5.21102 6.66106 4.57143 5.71429 4.57143C4.76751 4.57143 4 5.21102 4 6C4 6.78898 4.76751 7.42857 5.71429 7.42857Z" fill="#1983FF"/>
<path d="M4 9.65714C4 9.05752 4.51168 8.57143 5.14286 8.57143H6.28571C6.91689 8.57143 7.42857 9.05751 7.42857 9.65714V18.3429C7.42857 18.9425 6.91689 19.4286 6.28571 19.4286H5.14286C4.51168 19.4286 4 18.9425 4 18.3429V9.65714Z" fill="#1983FF"/>
<path d="M10.7937 19.4286H11.873C12.4692 19.4286 12.9524 18.9425 12.9524 18.3429V13.4571C12.9524 11.8286 16.1905 10.7429 16.1905 12.9143V18.3433C16.1905 18.9429 16.6737 19.4286 17.2698 19.4286H18.3492C18.9453 19.4286 19.4286 18.9425 19.4286 18.3429V11.8286C19.4286 9.65714 17.8095 8.57143 15.6508 8.57143C13.4921 8.57143 12.9524 10.2 12.9524 10.2V9.65714C12.9524 9.05751 12.4692 8.57143 11.873 8.57143H10.7937C10.1975 8.57143 9.71429 9.05752 9.71429 9.65714V18.3429C9.71429 18.9425 10.1975 19.4286 10.7937 19.4286Z" fill="#1983FF"/>
<path fill-rule="evenodd" clip-rule="evenodd" d="M20.7273 0C22.5348 0 24 1.46525 24 3.27273V20.7273C24 22.5348 22.5348 24 20.7273 24H3.27273C1.46525 24 0 22.5348 0 20.7273V3.27273C0 1.46525 1.46525 0 3.27273 0H20.7273ZM20.7273 2.18182C21.3298 2.18182 21.8182 2.67024 21.8182 3.27273V20.7273C21.8182 21.3298 21.3298 21.8182 20.7273 21.8182H3.27273C2.67024 21.8182 2.18182 21.3298 2.18182 20.7273V3.27273C2.18182 2.67024 2.67024 2.18182 3.27273 2.18182H20.7273Z" fill="#1983FF"/>
</svg>
