<svg width="83" height="30" viewBox="0 0 83 30" fill="none" xmlns="http://www.w3.org/2000/svg">
<path d="M0 4C0 1.79086 1.79086 0 4 0H79C81.2091 0 83 1.79086 83 4V26C83 28.2091 81.2091 30 79 30H4C1.79086 30 0 28.2091 0 26V4Z" fill="#020508"/>
<path d="M26.3709 16.18C26.3709 15.5867 26.4709 15.0733 26.6709 14.64C26.8776 14.2 27.1576 13.8667 27.5109 13.64C27.8642 13.4067 28.2609 13.29 28.7009 13.29C29.0676 13.29 29.3842 13.3667 29.6509 13.52C29.9176 13.6667 30.1209 13.87 30.2609 14.13V13.36H32.4709V19H30.2609V18.23C30.1209 18.49 29.9176 18.6967 29.6509 18.85C29.3842 18.9967 29.0676 19.07 28.7009 19.07C28.2609 19.07 27.8642 18.9567 27.5109 18.73C27.1576 18.4967 26.8776 18.1633 26.6709 17.73C26.4709 17.29 26.3709 16.7733 26.3709 16.18ZM30.2609 16.18C30.2609 15.88 30.1842 15.6467 30.0309 15.48C29.8776 15.3133 29.6809 15.23 29.4409 15.23C29.2009 15.23 29.0042 15.3133 28.8509 15.48C28.6976 15.6467 28.6209 15.88 28.6209 16.18C28.6209 16.48 28.6976 16.7133 28.8509 16.88C29.0042 17.0467 29.2009 17.13 29.4409 17.13C29.6809 17.13 29.8776 17.0467 30.0309 16.88C30.1842 16.7133 30.2609 16.48 30.2609 16.18Z" fill="white"/>
<path d="M34.5678 19.08C34.1811 19.08 33.8711 18.9767 33.6378 18.77C33.4044 18.5633 33.2878 18.3033 33.2878 17.99C33.2878 17.67 33.4044 17.4067 33.6378 17.2C33.8711 16.9867 34.1811 16.88 34.5678 16.88C34.9478 16.88 35.2544 16.9867 35.4878 17.2C35.7211 17.4067 35.8378 17.67 35.8378 17.99C35.8378 18.3033 35.7211 18.5633 35.4878 18.77C35.2544 18.9767 34.9478 19.08 34.5678 19.08Z" fill="white"/>
<path d="M36.3611 16.18C36.3611 15.5867 36.4611 15.0733 36.6611 14.64C36.8678 14.2 37.1478 13.8667 37.5011 13.64C37.8545 13.4067 38.2511 13.29 38.6911 13.29C39.0578 13.29 39.3711 13.3667 39.6311 13.52C39.8978 13.6667 40.1011 13.87 40.2411 14.13V11.6H42.4611V19H40.2411V18.23C40.1011 18.49 39.8978 18.6967 39.6311 18.85C39.3711 18.9967 39.0578 19.07 38.6911 19.07C38.2511 19.07 37.8545 18.9567 37.5011 18.73C37.1478 18.4967 36.8678 18.1633 36.6611 17.73C36.4611 17.29 36.3611 16.7733 36.3611 16.18ZM40.2511 16.18C40.2511 15.88 40.1745 15.6467 40.0211 15.48C39.8678 15.3133 39.6711 15.23 39.4311 15.23C39.1911 15.23 38.9945 15.3133 38.8411 15.48C38.6878 15.6467 38.6111 15.88 38.6111 16.18C38.6111 16.48 38.6878 16.7133 38.8411 16.88C38.9945 17.0467 39.1911 17.13 39.4311 17.13C39.6711 17.13 39.8678 17.0467 40.0211 16.88C40.1745 16.7133 40.2511 16.48 40.2511 16.18Z" fill="white"/>
<path d="M48.918 16.13C48.918 16.2833 48.908 16.43 48.888 16.57H45.318C45.3513 17.0567 45.5547 17.3 45.928 17.3C46.168 17.3 46.3413 17.19 46.448 16.97H48.798C48.718 17.37 48.548 17.73 48.288 18.05C48.0347 18.3633 47.7113 18.6133 47.318 18.8C46.9313 18.98 46.5047 19.07 46.038 19.07C45.478 19.07 44.978 18.9533 44.538 18.72C44.1047 18.4867 43.7647 18.1533 43.518 17.72C43.278 17.28 43.158 16.7667 43.158 16.18C43.158 15.5933 43.278 15.0833 43.518 14.65C43.7647 14.21 44.1047 13.8733 44.538 13.64C44.978 13.4067 45.478 13.29 46.038 13.29C46.598 13.29 47.0947 13.4067 47.528 13.64C47.968 13.8667 48.308 14.1933 48.548 14.62C48.7947 15.0467 48.918 15.55 48.918 16.13ZM46.668 15.6C46.668 15.4133 46.608 15.2733 46.488 15.18C46.368 15.08 46.218 15.03 46.038 15.03C45.6447 15.03 45.4147 15.22 45.348 15.6H46.668Z" fill="white"/>
<path d="M52.4801 16.89L53.3801 13.36H55.7401L53.8601 19H51.0901L49.2101 13.36H51.5701L52.4801 16.89Z" fill="white"/>
</svg>
